<svg id="Layer_1" data-name="Layer 1" xmlns="http://www.w3.org/2000/svg" viewBox="0 0 1026 406"><defs><style>.cls-1{fill:#e30813;stroke:#fff;stroke-miterlimit:10;}.cls-2,.cls-3,.cls-4{fill:red;}.cls-2{opacity:0.1;}.cls-3{opacity:0.15;}.cls-4{opacity:0.2;}</style></defs><g id="Error"><polygon class="cls-1" points="303.02 60.86 349.47 60.86 351.78 50.72 278.63 50.72 274.04 70.66 300.81 70.66 303.02 60.86"/><polygon class="cls-1" points="346.92 76.91 303.82 76.91 305.24 70.66 278.47 70.66 276.68 78.41 346.57 78.41 346.92 76.91"/><polygon class="cls-1" points="344.35 78.41 274.47 78.41 270.39 96.13 340.22 96.13 344.35 78.41"/><path class="cls-1" d="M412.8,38.09H371.65l-2.9,12.63H439C434.38,42.64,425.11,38.09,412.8,38.09Z"/><polygon class="cls-1" points="388.72 70.66 361.94 70.66 360.16 78.41 386.94 78.41 388.72 70.66"/><path class="cls-1" d="M439.44,70.66H412.87a11.73,11.73,0,0,1-8.3,7.75H437A34.85,34.85,0,0,0,439.44,70.66Z"/><polygon class="cls-1" points="346.79 136.44 373.58 136.44 375.46 128.24 348.68 128.24 346.79 136.44"/><polygon class="cls-1" points="411.98 128.24 418.61 136.44 449.02 136.44 442.47 128.24 411.98 128.24"/><polygon class="cls-1" points="493.81 70.66 467.03 70.66 465.25 78.41 492.03 78.41 493.81 70.66"/><polygon class="cls-1" points="451.88 136.44 478.67 136.44 480.55 128.24 453.77 128.24 451.88 136.44"/><polygon class="cls-1" points="517.06 128.24 523.7 136.44 554.11 136.44 547.56 128.24 517.06 128.24"/><path class="cls-1" d="M544.53,70.66H518a11.73,11.73,0,0,1-8.3,7.75h32.39A34.85,34.85,0,0,0,544.53,70.66Z"/><path class="cls-1" d="M615.86,36.15a61.14,61.14,0,0,0-39.42,14.57h75.3C643.27,41.72,630.85,36.15,615.86,36.15Z"/><path class="cls-1" d="M660.23,70.66H631.06A24.23,24.23,0,0,1,634,78.41h27.49A47.82,47.82,0,0,0,660.23,70.66Z"/><path class="cls-1" d="M588.52,70.66H559a54.12,54.12,0,0,0-2.87,7.75h27.63A31.29,31.29,0,0,1,588.52,70.66Z"/><path class="cls-1" d="M659.44,82.22c0-1.29-.07-2.56-.17-3.81h-27.5a28.29,28.29,0,0,1,.63,5.75,30.55,30.55,0,0,1-2.47,12h27.6A51.9,51.9,0,0,0,659.44,82.22Z"/><path class="cls-1" d="M635.78,128.24H570.27c8,6.35,18.73,10.14,32,10.14A60.83,60.83,0,0,0,635.78,128.24Z"/><polygon class="cls-1" points="659.86 136.44 686.64 136.44 688.53 128.24 661.74 128.24 659.86 136.44"/><polygon class="cls-1" points="725.04 128.24 731.68 136.44 762.09 136.44 755.54 128.24 725.04 128.24"/><polygon class="cls-1" points="701.78 70.66 675 70.66 673.22 78.41 700 78.41 701.78 70.66"/><path class="cls-1" d="M752.51,70.66H725.93a11.73,11.73,0,0,1-8.3,7.75H750A34.88,34.88,0,0,0,752.51,70.66Z"/><path class="cls-1" d="M725.87,38.09H684.72l-2.91,12.63h70.27C747.44,42.64,738.17,38.09,725.87,38.09Z"/><polygon class="cls-1" points="346.95 113.66 299.84 113.66 303.34 98 346.43 98 346.87 96.13 277.03 96.13 275.63 102.22 294.3 102.22 294.3 104.43 275.12 104.43 270.23 125.66 344.22 125.66 346.95 113.66"/><path class="cls-1" d="M522.13,82V79.79h17c.23-.46.49-.91.7-1.38H507.44a17.91,17.91,0,0,1-5.1.7H489.65l.16-.7H463L459,96.13h63.48A37.55,37.55,0,0,0,537.9,82Z"/><path class="cls-1" d="M670.56,80.35l-1.86,8.07h17.83v2.21H668.19l-1.27,5.5h63.49a37.33,37.33,0,0,0,16.41-15.78Z"/><polygon class="cls-1" points="309.67 133.94 309.67 130.74 338.63 130.74 339.2 128.24 265.21 128.24 263.32 136.44 337.34 136.44 337.91 133.94 309.67 133.94"/><polygon class="cls-1" points="288.18 38.09 287.48 41.13 303.11 41.13 303.11 47.68 285.97 47.68 285.27 50.72 358.42 50.72 361.29 38.09 288.18 38.09"/><path class="cls-1" d="M416.9,60.56V54h19.21c-.29-.75-.61-1.47-1-2.17H364.06l-4.33,18.83h26.78L389,60H401.9c6.35,0,9.19,3.1,9.19,7.76a10.46,10.46,0,0,1-.43,2.94h26.57a34.82,34.82,0,0,0,.65-6.56,33.72,33.72,0,0,0-.2-3.54Z"/><path class="cls-1" d="M534.07,64V57.41h8.15a24.5,24.5,0,0,0-2.55-6.69H469.4l-4.59,19.94H491.6L494.05,60H507c6.34,0,9.19,3.1,9.19,7.76a10.12,10.12,0,0,1-.44,2.94h26.58A34.82,34.82,0,0,0,543,64.1s0-.09,0-.13Z"/><path class="cls-1" d="M654.3,60.69H631.06V54.13h19.11a44.11,44.11,0,0,0-2.86-3.41H572a58.59,58.59,0,0,0-13.88,17.17H589a29.23,29.23,0,0,1,19.84-7.8c7.77,0,13.9,3,18,7.8h30.42A45.47,45.47,0,0,0,654.3,60.69Z"/><path class="cls-1" d="M626.82,67.89a21.42,21.42,0,0,1,2,2.77H658c-.23-.94-.49-1.86-.78-2.77Z"/><path class="cls-1" d="M636.58,96.13a29.92,29.92,0,0,1-27.43,18.44c-12.56,0-20.9-7.74-23-18.44H558.71a49.64,49.64,0,0,0,2.56,12.78h26.32v6.55H564.13a40.92,40.92,0,0,0,10.57,12.78h65.51a57.39,57.39,0,0,0,24-32.11Z"/><path class="cls-1" d="M725.72,60.69V54.13h23.49a23,23,0,0,0-1.56-3.41H677.38l-4.59,19.94h26.78L702,60H715c6.34,0,9.19,3.1,9.19,7.76a10.47,10.47,0,0,1-.44,2.94h26.57a32.44,32.44,0,0,0,.46-10Z"/><polygon class="cls-1" points="465.21 97.79 458.2 128.24 484.98 128.24 487.92 115.46 468 115.46 468 108.91 489.43 108.91 491.25 100.98 499.4 100.98 521.49 128.24 551.99 128.24 527.65 97.79 465.21 97.79"/><path class="cls-1" d="M402.35,78.41a17.91,17.91,0,0,1-5.1.7H384.56l.17-.7H357.94l-1.66,7.22h22.85v3.28H355.52l-1.66,7.22h63.48a37.12,37.12,0,0,0,17.4-17.72Z"/><path class="cls-1" d="M432.31,122.7v-3.27h7.55L422,97.1c.68-.3,1.32-.64,2-1H360.51l-7.4,32.11H379.9L386.16,101h8.16l22.08,27.26h30.5l-4.42-5.54Z"/><path class="cls-1" d="M517.89,38.09H476.74l-1.45,6.32h28.38v3.27H474.53l-.7,3H544.1C539.47,42.64,530.2,38.09,517.89,38.09Z"/><path class="cls-1" d="M581.52,78.41H553.88A51.5,51.5,0,0,0,552,89.53H574.6V92.8H551.92c0,1.12.07,2.23.14,3.33H579.5a28.26,28.26,0,0,1-.55-5.5A30.5,30.5,0,0,1,581.52,78.41Z"/><path class="cls-1" d="M742,105.79h-16.3v-3.27H739.4l-4.33-5.42c.68-.3,1.33-.64,2-1H673.57l-7.4,32.11H693L699.23,101h8.15l9.08,11.2h19v6.56h-13.7l7.7,9.5H760Z"/><polygon class="cls-1" points="394.36 207.97 347.33 207.97 332.35 221.26 391.31 221.26 394.36 207.97"/><polygon class="cls-1" points="340.72 261.51 337.73 274.42 383.52 274.42 387.59 256.7 296.83 256.7 276.86 274.42 326.28 274.42 340.72 261.51"/><polygon class="cls-1" points="332.93 274.42 283.5 274.42 272.27 284.39 321.78 284.39 332.93 274.42"/><polygon class="cls-1" points="390.17 274.42 344.38 274.42 342.07 284.39 387.88 284.39 390.17 274.42"/><polygon class="cls-1" points="383.45 284.39 337.64 284.39 337.12 286.6 382.94 286.6 383.45 284.39"/><polygon class="cls-1" points="317.35 284.39 267.84 284.39 265.34 286.6 314.87 286.6 317.35 284.39"/><polygon class="cls-1" points="377.74 289.92 331.92 289.92 329.01 302.5 292.66 302.5 306.72 289.92 257.16 289.92 233.44 310.96 401.12 310.96 403.1 302.5 374.86 302.5 377.74 289.92"/><polygon class="cls-1" points="401.39 328.68 232.51 328.68 231.84 331.64 400.7 331.64 401.39 328.68"/><polygon class="cls-1" points="240.71 331.64 238.81 340 333.74 340 333.27 341.97 378.9 341.97 379.35 340 407.59 340 409.56 331.64 240.71 331.64"/><polygon class="cls-1" points="370.04 341.97 324.41 341.97 321.03 356.37 366.79 356.37 370.04 341.97"/><polygon class="cls-1" points="314.39 356.37 311.98 366.63 357.82 366.63 360.14 356.37 314.39 356.37"/><polygon class="cls-1" points="357.73 204.65 353.98 207.97 401.01 207.97 401.77 204.65 357.73 204.65"/><polygon class="cls-1" points="413.85 190.66 382.36 190.66 366.59 204.65 410.63 204.65 413.85 190.66"/><path class="cls-1" d="M467.74,204.65c-1.68,1.07-3.34,2.17-4.95,3.33H585c-1.33-1.16-2.72-2.26-4.13-3.33Z"/><path class="cls-1" d="M473.57,256.7H423.1a93.14,93.14,0,0,0-4.19,16.06h48.44A55.1,55.1,0,0,1,473.57,256.7Z"/><path class="cls-1" d="M468.19,284.67c0-.1,0-.19,0-.28H419.88c0,.73,0,1.47-.05,2.21h48.44C468.25,286,468.19,285.32,468.19,284.67Z"/><path class="cls-1" d="M611,284.39H562.61c-.16.75-.38,1.47-.57,2.21h48.55C610.73,285.86,610.88,285.13,611,284.39Z"/><path class="cls-1" d="M602.44,311H548.61a52.3,52.3,0,0,1-38.28,16.77c-15.31,0-27.08-6.54-34.24-16.77H422.62a80.67,80.67,0,0,0,6.76,17.72h161.9A101.16,101.16,0,0,0,602.44,311Z"/><path class="cls-1" d="M591.28,328.68H429.38c.52,1,1.08,2,1.65,3H588.86C589.68,330.66,590.49,329.68,591.28,328.68Z"/><path class="cls-1" d="M441.55,334.22a73.88,73.88,0,0,0,5.62,7.75H587.73a105.51,105.51,0,0,0,7.65-7.75Z"/><path class="cls-1" d="M552.07,356.37h-104c13.5,8.7,30.7,13.73,51.21,13.73A108.6,108.6,0,0,0,552.07,356.37Z"/><path class="cls-1" d="M463.84,286.6H415.4c0,.44,0,.87,0,1.31a93.48,93.48,0,0,0,2.82,23h53.47A45.07,45.07,0,0,1,463.84,286.6Z"/><path class="cls-1" d="M606.16,286.6H557.61A55.67,55.67,0,0,1,544.18,311H598A94.93,94.93,0,0,0,606.16,286.6Z"/><path class="cls-1" d="M473.6,274.42H425.26a91.19,91.19,0,0,0-.95,10h48.32A55.6,55.6,0,0,1,473.6,274.42Z"/><path class="cls-1" d="M616.51,274.42h-48.3a55,55,0,0,1-1.17,10h48.39A91.26,91.26,0,0,0,616.51,274.42Z"/><path class="cls-1" d="M610,269.62a89.81,89.81,0,0,0-.93-12.92H558.88a49.18,49.18,0,0,1,2.71,16.06h48.32C609.94,271.71,610,270.67,610,269.62Z"/><path class="cls-1" d="M578.36,208H456.14a105.72,105.72,0,0,0-10.17,8.3H586.53A77.11,77.11,0,0,0,578.36,208Z"/><polygon class="cls-1" points="774.08 207.97 727.05 207.97 712.07 221.26 771.02 221.26 774.08 207.97"/><polygon class="cls-1" points="674.67 258.36 656.57 274.42 706 274.42 720.43 261.51 717.44 274.42 763.24 274.42 766.93 258.36 674.67 258.36"/><polygon class="cls-1" points="712.64 274.42 663.22 274.42 651.98 284.39 701.49 284.39 712.64 274.42"/><polygon class="cls-1" points="782.82 302.5 754.57 302.5 758.22 286.6 712.41 286.6 708.73 302.5 672.38 302.5 690.15 286.6 640.62 286.6 613.16 310.96 780.83 310.96 782.82 302.5"/><polygon class="cls-1" points="781.1 328.68 612.23 328.68 611.56 331.64 780.41 331.64 781.1 328.68"/><polygon class="cls-1" points="620.42 331.64 618.52 340 713.45 340 712.99 341.97 758.62 341.97 759.06 340 787.31 340 789.27 331.64 620.42 331.64"/><polygon class="cls-1" points="749.76 341.97 704.13 341.97 700.75 356.37 746.5 356.37 749.76 341.97"/><polygon class="cls-1" points="694.1 356.37 691.69 366.63 737.54 366.63 739.86 356.37 694.1 356.37"/><polygon class="cls-1" points="697.06 284.39 647.55 284.39 645.05 286.6 694.58 286.6 697.06 284.39"/><polygon class="cls-1" points="763.16 284.39 717.35 284.39 716.84 286.6 762.65 286.6 763.16 284.39"/><polygon class="cls-1" points="769.88 274.42 724.09 274.42 721.78 284.39 767.59 284.39 769.88 274.42"/><polygon class="cls-1" points="793.56 190.66 762.07 190.66 746.3 204.65 790.35 204.65 793.56 190.66"/><polygon class="cls-1" points="737.44 204.65 733.69 207.97 780.72 207.97 781.49 204.65 737.44 204.65"/><polygon class="cls-1" points="360.14 238.61 360.14 231.23 402.31 231.23 404 223.85 342.73 223.85 305.69 256.7 396.45 256.7 400.61 238.61 360.14 238.61"/><polygon class="cls-1" points="615.62 313.73 614.34 319.36 714.86 319.36 714.86 323.05 613.51 323.05 612.23 328.68 781.1 328.68 784.61 313.73 615.62 313.73"/><path class="cls-1" d="M438.31,342c1,1.21,2.09,2.37,3.19,3.51h39.28v7.38h-31c1.6,1.22,3.24,2.4,5,3.51h104A109.19,109.19,0,0,0,578.87,342Z"/><path class="cls-1" d="M603.75,221.26H454.13a108.39,108.39,0,0,0-7.15,8.31h19.13V251H434.26Q433,253.8,432,256.7h50.47A53.22,53.22,0,0,1,528.32,230c19.87,0,33.84,10.83,39.42,26.68h50.17A80.34,80.34,0,0,0,603.75,221.26Z"/><polygon class="cls-1" points="758.51 251.07 758.51 229.66 782.38 229.66 783.68 224.03 722.24 224.03 685.41 256.7 776.17 256.7 777.46 251.07 758.51 251.07"/><polygon class="cls-1" points="242.3 310.96 240.63 312.45 238.64 321.21 318.27 321.21 318.27 324.9 237.8 324.9 236.94 328.68 405.82 328.68 409.98 310.96 242.3 310.96"/><path class="cls-1" d="M529.28,197.88v-3.69h42a94.58,94.58,0,0,0-35.88-6.77,109.65,109.65,0,0,0-58.8,17.23H589.74a81.38,81.38,0,0,0-10.61-6.77Z"/><rect class="cls-1" x="812.58" y="35.9" width="3.44" height="3.44" transform="translate(1628.61 75.24) rotate(180)"/><rect class="cls-1" x="257.69" y="216.58" width="3.44" height="3.44" transform="translate(518.83 436.61) rotate(180)"/><rect class="cls-1" x="817.18" y="287.69" width="4.47" height="4.47" transform="translate(1638.84 579.85) rotate(180)"/><rect class="cls-1" x="245.27" y="49.59" width="4.47" height="4.47" transform="translate(495.02 103.66) rotate(180)"/><rect class="cls-1" x="756.53" y="63.53" width="80.22" height="1.84" transform="translate(1593.27 128.89) rotate(180)"/><rect class="cls-1" x="774.48" y="68.03" width="48.07" height="6.91" transform="translate(1597.03 142.97) rotate(180)"/><rect class="cls-1" x="200.41" y="309.16" width="3.44" height="3.44" transform="translate(404.27 621.77) rotate(180)"/><rect class="cls-1" x="144.36" y="336.79" width="80.22" height="1.84" transform="translate(368.93 675.42) rotate(180)"/><rect class="cls-1" x="162.31" y="341.3" width="48.07" height="6.91" transform="translate(372.69 689.5) rotate(180)"/><rect class="cls-1" x="83.17" y="102.52" width="136.46" height="1.3"/><rect class="cls-1" x="151.4" y="131.07" width="136.46" height="1.3"/><rect class="cls-1" x="144.76" y="116.86" width="79.42" height="4.73"/><rect class="cls-1" x="777.84" y="285.52" width="86.12" height="1.3"/><rect class="cls-1" x="820.9" y="314.07" width="86.12" height="1.3"/><rect class="cls-1" x="816.7" y="299.86" width="50.12" height="4.73"/><rect class="cls-1" x="819.42" y="103" width="17.71" height="5.94"/><rect class="cls-1" x="845.58" y="104.59" width="12.96" height="4.35"/><rect class="cls-1" x="870.91" y="104.59" width="8.29" height="4.35"/><rect class="cls-1" x="880.18" y="104.59" width="8.29" height="4.35"/><rect class="cls-1" x="889.45" y="104.59" width="8.29" height="4.35"/><rect class="cls-1" x="898.72" y="104.59" width="8.29" height="4.35"/><rect class="cls-1" x="919.91" y="104.59" width="3.5" height="4.35"/><rect class="cls-1" x="929.74" y="104.59" width="3.5" height="4.35"/><rect class="cls-1" x="950.5" y="104.59" width="3.5" height="4.35"/><rect class="cls-1" x="956.86" y="104.59" width="3.5" height="4.35"/><rect class="cls-1" x="963.23" y="104.59" width="3.5" height="4.35"/><rect class="cls-1" x="969.59" y="104.59" width="3.5" height="4.35"/><rect class="cls-1" x="975.95" y="104.59" width="3.5" height="4.35"/><rect class="cls-1" x="982.31" y="104.59" width="3.5" height="4.35"/><rect class="cls-1" x="988.67" y="104.59" width="3.5" height="4.35"/><rect class="cls-1" x="995.04" y="104.59" width="3.5" height="4.35"/><rect class="cls-1" x="788.81" y="97.79" width="39.86" height="1.3"/><rect class="cls-1" x="200.51" y="293.18" width="17.71" height="2.32" transform="translate(418.73 588.68) rotate(180)"/><rect class="cls-1" x="179.1" y="293.8" width="12.96" height="1.69" transform="translate(371.16 589.3) rotate(180)"/><rect class="cls-1" x="158.43" y="293.8" width="8.29" height="1.69" transform="translate(325.16 589.3) rotate(180)"/><rect class="cls-1" x="149.16" y="293.8" width="8.29" height="1.69" transform="translate(306.62 589.3) rotate(180)"/><rect class="cls-1" x="139.89" y="293.8" width="8.29" height="1.69" transform="translate(288.08 589.3) rotate(180)"/><rect class="cls-1" x="130.62" y="293.8" width="8.29" height="1.69" transform="translate(269.54 589.3) rotate(180)"/><rect class="cls-1" x="114.22" y="293.8" width="3.5" height="1.69" transform="translate(231.95 589.3) rotate(180)"/><rect class="cls-1" x="104.4" y="293.8" width="3.5" height="1.69" transform="translate(212.29 589.3) rotate(180)"/><rect class="cls-1" x="83.63" y="293.8" width="3.5" height="1.69" transform="translate(170.77 589.3) rotate(180)"/><rect class="cls-1" x="77.27" y="293.8" width="3.5" height="1.69" transform="translate(158.04 589.3) rotate(180)"/><rect class="cls-1" x="70.91" y="293.8" width="3.5" height="1.69" transform="translate(145.32 589.3) rotate(180)"/><rect class="cls-1" x="64.54" y="293.8" width="3.5" height="1.69" transform="translate(132.59 589.3) rotate(180)"/><rect class="cls-1" x="58.18" y="293.8" width="3.5" height="1.69" transform="translate(119.87 589.3) rotate(180)"/><rect class="cls-1" x="51.82" y="293.8" width="3.5" height="1.69" transform="translate(107.15 589.3) rotate(180)"/><rect class="cls-1" x="45.46" y="293.8" width="3.5" height="1.69" transform="translate(94.42 589.3) rotate(180)"/><rect class="cls-1" x="39.1" y="293.8" width="3.5" height="1.69" transform="translate(81.7 589.3) rotate(180)"/><rect class="cls-1" x="208.97" y="280.08" width="39.86" height="0.51" transform="translate(457.79 560.66) rotate(180)"/><rect class="cls-1" x="935.76" y="237.16" width="17.71" height="2.32" transform="translate(1889.22 476.64) rotate(180)"/><rect class="cls-1" x="914.35" y="237.78" width="12.96" height="1.69" transform="translate(1841.65 477.26) rotate(180)"/><rect class="cls-1" x="893.68" y="237.78" width="8.29" height="1.69" transform="translate(1795.65 477.26) rotate(180)"/><rect class="cls-1" x="884.41" y="237.78" width="8.29" height="1.69" transform="translate(1777.11 477.26) rotate(180)"/><rect class="cls-1" x="875.14" y="237.78" width="8.29" height="1.69" transform="translate(1758.57 477.26) rotate(180)"/><rect class="cls-1" x="865.87" y="237.78" width="8.29" height="1.69" transform="translate(1740.03 477.26) rotate(180)"/><rect class="cls-1" x="849.47" y="237.78" width="3.5" height="1.69" transform="translate(1702.44 477.26) rotate(180)"/><rect class="cls-1" x="839.64" y="237.78" width="3.5" height="1.69" transform="translate(1682.79 477.26) rotate(180)"/><rect class="cls-1" x="818.88" y="237.78" width="3.5" height="1.69" transform="translate(1641.26 477.26) rotate(180)"/><rect class="cls-1" x="812.52" y="237.78" width="3.5" height="1.69" transform="translate(1628.53 477.26) rotate(180)"/><rect class="cls-1" x="806.15" y="237.78" width="3.5" height="1.69" transform="translate(1615.81 477.26) rotate(180)"/><rect class="cls-1" x="799.79" y="237.78" width="3.5" height="1.69" transform="translate(1603.09 477.26) rotate(180)"/><rect class="cls-1" x="793.43" y="237.78" width="3.5" height="1.69" transform="translate(1590.36 477.26) rotate(180)"/><rect class="cls-1" x="787.07" y="237.78" width="3.5" height="1.69" transform="translate(1577.64 477.26) rotate(180)"/><rect class="cls-1" x="780.7" y="237.78" width="3.5" height="1.69" transform="translate(1564.91 477.26) rotate(180)"/><rect class="cls-1" x="774.34" y="237.78" width="3.5" height="1.69" transform="translate(1552.19 477.26) rotate(180)"/><rect class="cls-1" x="944.21" y="224.05" width="39.86" height="0.51" transform="translate(1928.28 448.62) rotate(180)"/><rect class="cls-1" x="756.36" y="135.13" width="233.99" height="1.3"/><rect class="cls-1" x="124.53" y="257.88" width="233.99" height="1.3"/><rect class="cls-2" x="678.73" y="40.4" width="47.62" height="47.62"/><rect class="cls-2" x="777.42" y="233.34" width="23.81" height="23.81"/><rect class="cls-2" x="235.61" y="239.23" width="23.81" height="23.81"/><rect class="cls-2" x="136.45" y="101.48" width="287.25" height="42.56"/><rect class="cls-2" x="210.04" y="299.09" width="287.25" height="42.56"/><rect class="cls-3" x="27" y="218.3" width="287.25" height="14.64"/><rect class="cls-4" x="711.29" y="73.06" width="287.25" height="7.32"/><rect class="cls-2" x="95.84" y="90.31" width="287.25" height="17.88"/><rect class="cls-2" x="574.53" y="225.62" width="287.25" height="17.88"/><rect class="cls-4" x="711.75" y="307.95" width="287.25" height="6.77"/></g></svg>