<svg id="Layer_1" data-name="Layer 1" xmlns="http://www.w3.org/2000/svg" xmlns:xlink="http://www.w3.org/1999/xlink" viewBox="0 0 1440 786"><defs><style>.cls-1,.cls-22,.cls-44,.cls-46,.cls-8{fill:none;}.cls-2{fill:#161616;}.cls-3{clip-path:url(#clip-path);}.cls-4{opacity:0.15;}.cls-18,.cls-5{opacity:0.22;}.cls-11,.cls-15,.cls-18,.cls-20,.cls-44,.cls-46,.cls-6,.cls-8{stroke:#fff;}.cls-11,.cls-19,.cls-22,.cls-6,.cls-8{stroke-miterlimit:10;}.cls-11,.cls-15,.cls-18,.cls-19,.cls-20,.cls-22,.cls-44,.cls-46,.cls-6,.cls-8{stroke-width:2px;}.cls-7{clip-path:url(#clip-path-2);}.cls-9{clip-path:url(#clip-path-3);}.cls-10{clip-path:url(#clip-path-4);}.cls-11,.cls-16,.cls-17,.cls-19,.cls-28,.cls-33,.cls-38,.cls-41{fill:#fff;}.cls-12{clip-path:url(#clip-path-5);}.cls-13{clip-path:url(#clip-path-6);}.cls-14{clip-path:url(#clip-path-7);}.cls-15,.cls-18,.cls-20,.cls-44,.cls-46{stroke-linejoin:round;}.cls-16{font-size:41.53px;}.cls-16,.cls-17,.cls-28,.cls-33,.cls-38,.cls-41{font-family:Amatic-Bold, Amatic;font-weight:700;}.cls-17{font-size:39.19px;}.cls-19{stroke:#1e1d1c;}.cls-20,.cls-44{stroke-linecap:round;}.cls-21{clip-path:url(#clip-path-8);}.cls-22{stroke:#000;}.cls-23{clip-path:url(#clip-path-9);}.cls-24{clip-path:url(#clip-path-10);}.cls-25{clip-path:url(#clip-path-11);}.cls-26{clip-path:url(#clip-path-12);}.cls-27{clip-path:url(#clip-path-13);}.cls-28{font-size:36.66px;}.cls-29{letter-spacing:-0.02em;}.cls-30{clip-path:url(#clip-path-14);}.cls-31{clip-path:url(#clip-path-15);}.cls-32{clip-path:url(#clip-path-16);}.cls-33{font-size:42.8px;}.cls-34{letter-spacing:-0.02em;}.cls-35{clip-path:url(#clip-path-17);}.cls-36{clip-path:url(#clip-path-18);}.cls-37{clip-path:url(#clip-path-19);}.cls-38{font-size:25.02px;}.cls-39{letter-spacing:-0.02em;}.cls-40{letter-spacing:0em;}.cls-41{font-size:39.75px;}.cls-42{clip-path:url(#clip-path-20);}.cls-43{clip-path:url(#clip-path-21);}.cls-45{clip-path:url(#clip-path-22);}.cls-47{clip-path:url(#clip-path-23);}</style><clipPath id="clip-path"><rect class="cls-1" x="1.5" y="-0.5" width="1439" height="787"/></clipPath><clipPath id="clip-path-2"><path class="cls-1" d="M534.74,476.33a4.48,4.48,0,0,1,1.26-3.82c3.7-4.05,9.08-5.89,13.82-8.38a111.17,111.17,0,0,0,13.46-8.38c3.85-2.79,7.63-6,12.32-7.21a4.46,4.46,0,0,1,4,.65,6.62,6.62,0,0,1,1.48,2.09c5.76,11.07,11,22.43,16.51,33.64,5.13,10.47,10.2,21,15.29,31.46,2.1,4.32,1.58,8.86-2.13,12.12a86.33,86.33,0,0,1-20.16,12.2c-4.61,1.78-8.87.13-11.73-3.73q-10.4-14.07-20.78-28.14c-7.38-10.06-15-20-22.14-30.22A6.43,6.43,0,0,1,534.74,476.33Z"/></clipPath><clipPath id="clip-path-3"><path class="cls-1" d="M547.66,492.69c19.52.51,39.08-1.51,58.49-3.87,2.67-.33,8.21-1.62,10.6.1s2.86,8,3.57,10.61c.34,1.25,2,4.34.23,5.14a2.45,2.45,0,0,1-1,.17c-24.91,1.08-50.16,2.19-75.13,4.21-1.4.12-4.87,1.09-6.12.5s-1.11-2.08-1.33-3.42c-.43-2.52-.79-5-1.21-7.56-.32-2-2.51-5.08.43-6.11a6.65,6.65,0,0,1,2.67-.18C541.81,492.48,544.73,492.61,547.66,492.69Z"/></clipPath><clipPath id="clip-path-4"><path class="cls-1" d="M918.08,1.39a5,5,0,0,0-2.8-3.51c-5.45-2.81-11.81-2.65-17.74-3.44a125.57,125.57,0,0,1-17.37-3.55c-5.12-1.43-10.31-3.31-15.71-2.79a5,5,0,0,0-3.91,2.22,7.35,7.35,0,0,0-.74,2.77c-1.74,13.84-2.85,27.79-4.26,41.67-1.32,13-2.57,25.94-3.84,38.91-.52,5.34,1.78,9.9,6.94,11.88a54.8,54.8,0,0,0,12.76,3.39,55,55,0,0,0,13.11,1.59c5.52.08,9.35-3.3,10.85-8.46q5.45-18.78,10.87-37.56c3.84-13.41,8-26.78,11.5-40.27A7.3,7.3,0,0,0,918.08,1.39Z"/></clipPath><clipPath id="clip-path-5"><path class="cls-1" d="M910.88,23.55c-20.27,8.11-41.56,13.58-62.83,18.63-2.93.69-9.23,1.49-11.07,4.21s.09,9.47.37,12.52c.13,1.44-.38,5.3,1.75,5.48a2.92,2.92,0,0,0,1.09-.2c26.53-8.54,53.43-17.16,80.4-24.73,1.52-.42,5.53-.75,6.61-1.84s.35-2.62.07-4.11c-.53-2.8-1.13-5.59-1.67-8.4-.43-2.19.66-6.29-2.82-6.23a7.43,7.43,0,0,0-2.87.85Q915.44,21.74,910.88,23.55Z"/></clipPath><clipPath id="clip-path-6"><path class="cls-1" d="M961.92,699.8a3.66,3.66,0,0,0-.84-3.18c-2.8-3.42-7.09-5.06-10.81-7.22a85.85,85.85,0,0,1-10.52-7.21c-3-2.38-5.9-5.09-9.65-6.22a3.62,3.62,0,0,0-3.26.45,5.42,5.42,0,0,0-1.3,1.69c-5.22,9-10,18.25-15.06,27.37-4.68,8.52-9.31,17.06-14,25.59-1.92,3.52-1.72,7.27,1.13,10a66,66,0,0,0,15.78,10.52c3.65,1.57,7.2.31,9.7-2.81q9.14-11.37,18.26-22.74c6.49-8.13,13.16-16.15,19.47-24.43A5.71,5.71,0,0,0,961.92,699.8Z"/></clipPath><clipPath id="clip-path-7"><path class="cls-1" d="M950.62,713c-15.88,0-31.66-2.12-47.31-4.5-2.15-.33-6.59-1.52-8.61-.15s-2.71,6.5-3.42,8.67c-.34,1-1.81,3.53-.44,4.23a2.05,2.05,0,0,0,.78.16c20.18,1.44,40.62,2.93,60.8,5.15,1.14.13,3.91,1,5,.55s1-1.69,1.25-2.79c.47-2.07.89-4.14,1.35-6.21.36-1.62,2.29-4.13-.05-5.05a5.38,5.38,0,0,0-2.16-.2C955.38,713,953,713,950.62,713Z"/></clipPath><clipPath id="clip-path-8"><path class="cls-1" d="M179.06-23.91q10,2.57,19.81,5.69t19.46,6.81c5.74,2.2,14.56,3,10.6,10.39-10.15,19-18.72,39-27.85,58.57-2.54,5.43-6.23,7.32-12,5.46l-14.59-4.73-14.64-4.57c-5.75-1.8-7.68-5.47-6.61-11.37,3.86-21.24,8.43-42.53,11.13-63.9C165.46-29.9,173.11-25.43,179.06-23.91Z"/></clipPath><clipPath id="clip-path-9"><path class="cls-1" d="M596.23,740.05q-13.89,1.29-27.7,3.37t-27.47,5c-8.13,1.71-20.09.85-16.38,11.61,9.51,27.56,16.69,56.15,24.71,84.23,2.23,7.81,6.77,11.13,14.82,9.86l20.51-3.21,20.55-3c8.07-1.17,11.42-5.67,11.25-13.79-.61-29.2-2.18-58.64-1.22-87.78C615.68,735,604.51,739.29,596.23,740.05Z"/></clipPath><clipPath id="clip-path-10"><path class="cls-1" d="M63.82,549.41q-7-9.12-14.6-17.82t-15.59-17c-4.79-4.91-9.48-13.62-15.34-6.28-15,18.81-31.76,36.46-47.79,54.46-4.46,5-4.76,9.64-.32,14.69l11.31,12.88,11.16,13c4.38,5.1,9,5.45,14.59,1.74,20.08-13.33,39.9-27.44,60.64-39.65C76,560.71,68,554.84,63.82,549.41Z"/></clipPath><clipPath id="clip-path-11"><path class="cls-1" d="M153,743.41a3.92,3.92,0,0,0,1.55,2.64c1.18,1.1,4.83,5.83,6.36,5.92,1.8.1,5.12-4.47,6.42-5.77,11.74-11.71,23.22-23.66,34.66-35.66q8.73-9.13,17.44-18.28c2.68-2.8,6.76-5.81,8.75-9.11,1.49-2.48,1.26-1.42-.62-3.73a48.37,48.37,0,0,0-3.73-3.71c-2.48-2.46-2.94-2.08-5.39.16-2.7,2.47-5.19,5.23-7.77,7.83l-16.1,16.23c-13.36,13.75-28,26.63-40.47,41.16A3.66,3.66,0,0,0,153,743.41Z"/></clipPath><clipPath id="clip-path-12"><path class="cls-1" d="M175.79,761.36q7.91-3.51,15.79-7.08,17.92-8.1,35.8-16.3c9.25-4.24,18.81-7.84,28-12.08a4.63,4.63,0,0,0,3-5.06l-1-2c-2.14-4.47-3.83-12.71-10.2-11.91a17.58,17.58,0,0,0-5.54,2.05c-23.85,12.08-48,23.3-72.24,34.64-2.29,1.09-7.93,2.62-9.51,5a2.4,2.4,0,0,0-.33.66,4.49,4.49,0,0,0-.16,1.61c1.79,3.75,3.59,7.48,5.44,11.19C167.5,767.17,171.52,763.26,175.79,761.36Z"/></clipPath><clipPath id="clip-path-13"><path class="cls-1" d="M160,748.62a2.32,2.32,0,0,0-.33.67c-.53,1.69.75,3.59,1.86,5.82,1.62,3.23,3.54,6.85,4.49,9q4.5,10,9.1,20c5.48,11.88,10.95,23.8,16.8,35.52,2.54,5.08,6.57,1.18,10.84-.72q7.91-3.52,15.78-7.08,17.93-8.1,35.8-16.31c9.25-4.24,18.82-7.83,28-12.07,3.81-1.75,3.59-5.11,2-8.45q-9.09-18.81-18-37.69-4.41-9.26-8.83-18.5c-2.14-4.47-3.83-12.71-10.2-11.91a17.58,17.58,0,0,0-5.54,2.05c-23.85,12.08-48,23.3-72.24,34.64C167.22,744.69,161.58,746.22,160,748.62Z"/></clipPath><clipPath id="clip-path-14"><path class="cls-1" d="M1326.24,408.63c-.18,1,.26,2.05,1.21,3.36,1.11,1.51,4.28,7.73,6,8.16,2,.51,6.84-4,8.61-5.24,16-10.9,31.74-22.15,47.45-33.45q12-8.61,23.93-17.23c3.68-2.63,9-5.2,12-8.57,2.24-2.52,1.76-1.35.1-4.41a59.72,59.72,0,0,0-3.48-5.06c-2.32-3.35-2.93-3-6.22-1-3.64,2.25-7.08,4.88-10.6,7.31l-22,15.15c-18.29,12.91-37.81,24.54-55.29,38.52A4.23,4.23,0,0,0,1326.24,408.63Z"/></clipPath><clipPath id="clip-path-15"><path class="cls-1" d="M1348.53,434.13q9.83-2.33,19.63-4.72,22.3-5.45,44.59-11c11.52-2.87,23.27-4.94,34.77-7.82,3.12-.78,4.39-2.73,4.57-5.16-.22-.84-.45-1.68-.67-2.52-1.49-5.58-1.66-15.4-9.14-15.85a20.35,20.35,0,0,0-6.79,1.15c-30,8.72-60.14,16.4-90.35,24.2-2.87.76-9.66,1.3-12,3.71a3.23,3.23,0,0,0-.51.69,5.09,5.09,0,0,0-.54,1.81c1.25,4.68,2.52,9.36,3.85,14C1337.76,439,1343.22,435.39,1348.53,434.13Z"/></clipPath><clipPath id="clip-path-16"><path class="cls-1" d="M1333.14,416.11a3.23,3.23,0,0,0-.51.69c-1,1.83.08,4.29.88,7.08,1.16,4.06,2.58,8.63,3.22,11.28q3,12.48,6.13,24.94c3.73,14.81,7.43,29.67,11.63,44.37,1.82,6.38,7.28,2.77,12.59,1.5q9.83-2.33,19.64-4.72,22.3-5.43,44.58-11c11.52-2.87,23.28-4.94,34.77-7.81,4.76-1.19,5.22-5.09,4.09-9.28-4.26-15.69-8.42-31.41-12.59-47.12q-3.08-11.56-6.15-23.13c-1.49-5.58-1.66-15.4-9.14-15.85a20.35,20.35,0,0,0-6.79,1.15c-30,8.72-60.14,16.4-90.35,24.2C1342.27,413.16,1335.48,413.7,1333.14,416.11Z"/></clipPath><clipPath id="clip-path-17"><path class="cls-1" d="M1346,223.69a2.69,2.69,0,0,0,.58,2c.59.93,2.2,4.67,3.19,5,1.18.38,4.15-2.08,5.23-2.72,9.76-5.73,19.38-11.68,29-17.66q7.31-4.56,14.63-9.12c2.25-1.4,5.46-2.69,7.34-4.53,1.4-1.39,1.07-.72.22-2.58a32,32,0,0,0-1.83-3.08c-1.22-2.05-1.59-1.87-3.59-.81-2.21,1.17-4.32,2.57-6.47,3.85l-13.41,8c-11.17,6.81-23,12.84-33.75,20.31A2.5,2.5,0,0,0,1346,223.69Z"/></clipPath><clipPath id="clip-path-18"><path class="cls-1" d="M1358.05,239.44q5.84-1,11.64-2,13.23-2.31,26.44-4.69c6.84-1.22,13.77-2,20.6-3.2a3.16,3.16,0,0,0,2.86-2.84c-.1-.5-.19-1-.29-1.5-.65-3.31-.37-9.05-4.71-9.6a11.87,11.87,0,0,0-4,.41c-17.83,3.92-35.73,7.22-53.66,10.6-1.7.33-5.68.38-7.14,1.69a2,2,0,0,0-.33.39,3.09,3.09,0,0,0-.38,1c.55,2.78,1.1,5.56,1.7,8.33C1351.58,241.86,1354.91,240,1358.05,239.44Z"/></clipPath><clipPath id="clip-path-19"><path class="cls-1" d="M1349.78,228.32a2,2,0,0,0-.33.39c-.63,1-.11,2.5.24,4.16.52,2.42,1.17,5.14,1.44,6.71q1.26,7.39,2.61,14.79c1.6,8.78,3.18,17.59,5,26.33.82,3.8,4.14,1.9,7.29,1.37q5.82-1,11.64-2,13.23-2.29,26.44-4.68c6.83-1.23,13.77-2,20.59-3.21,2.82-.51,3.24-2.76,2.74-5.25q-2.81-14-5.51-28-1.34-6.87-2.68-13.74c-.65-3.31-.37-9.05-4.71-9.6a11.87,11.87,0,0,0-4,.41c-17.83,3.92-35.73,7.22-53.66,10.6C1355.22,227,1351.24,227,1349.78,228.32Z"/></clipPath><clipPath id="clip-path-20"><path class="cls-1" d="M-34.26,700.9c-.75,1.44.28,3.66.61,5.32l3.09,15.23q3,14.92,6,29.85l1.23,6.09c.5,2.47.38,3.87,3.13,3.9,4.73.06,10.07-1.93,14.72-2.89l17-3.53q30.43-6.3,60.88-12.42c1.57-.32,3.81-.37,5.26-1.07,1-.46,1.09.08,1.63-1s-1-4.92-1.18-6.07L77,728.2q-4.26-21.62-8.91-43.14c-.71-3.26-.56-4.52-4-4.48a56.24,56.24,0,0,0-10.22,1.49c-6.64,1.34-13.16,3.2-19.8,4.54Q3.6,692.7-26.77,698.9c-1.55.31-5.93.39-7.06,1.43A2,2,0,0,0-34.26,700.9Z"/></clipPath><clipPath id="clip-path-21"><path class="cls-1" d="M1436.36,703.62c.36,1.15-.67,2.65-1.13,3.84l-4.19,10.8-8.22,21.18-1.68,4.32c-.67,1.75-.76,2.8-2.79,2.47-3.49-.55-7.16-2.69-10.46-4l-12.05-4.74q-21.57-8.47-43.18-16.83a18,18,0,0,1-3.73-1.44c-.64-.46-.82-.08-1.07-.94s1.32-3.5,1.63-4.32l1.65-4.34q5.86-15.35,12-30.59c.93-2.31,1-3.25,3.53-2.78a42.41,42.41,0,0,1,7.33,2.39c4.71,1.82,9.27,4,14,5.84q21.57,8.31,43.11,16.71c1.1.43,4.31,1,5,1.95A1.42,1.42,0,0,1,1436.36,703.62Z"/></clipPath><clipPath id="clip-path-22"><path class="cls-1" d="M1203.76,74.66a1.65,1.65,0,0,0-.38,0,3.26,3.26,0,0,0-1.73,1.57,63.35,63.35,0,0,0-5.47,11.56c-7.58,19.66-13.45,39.92-19.3,60.15-1,3.57-4,11.33,2.24,11.19,8.59-.2,17.05-1.2,25.68-1.21,8.46,0,16.92,0,25.38-.23,10.21-.22,36.28,4.75,40-7.91,2.77-9.51,7.54-14.05-2.09-21-15-10.72-30-22.52-42-36.57-5.89-6.89-12.06-14.36-21-17.37A3.79,3.79,0,0,0,1203.76,74.66Z"/></clipPath><clipPath id="clip-path-23"><path class="cls-1" d="M182.25,121.81a1.21,1.21,0,0,1,.16.16,1.87,1.87,0,0,1,.26,1.36,37.15,37.15,0,0,1-1.53,7.43c-3.42,12-7.86,23.72-12.3,35.39-.79,2.06-2.15,6.8-5.05,4.5-4-3.15-7.66-6.64-11.74-9.73s-8-6-12-9.16c-4.76-3.75-18.89-10.69-16.12-18,2.08-5.49,1.44-9.35,8.47-9.19,10.91.25,22.24,0,32.93-2.36,5.26-1.16,10.84-2.5,16.13-.76A2.42,2.42,0,0,1,182.25,121.81Z"/></clipPath></defs><rect class="cls-2" x="1.5" y="-0.5" width="1439" height="787"/><g class="cls-3"><rect class="cls-2" x="1.5" y="-0.5" width="1439" height="787"/><g class="cls-4"><g class="cls-5"><path class="cls-6" d="M551.4,451.39c-1.12-1.3-2.23-2.4-2.76-3-5.64-6.37-11.79-12.86-18.61-18-1.27-1.05-2.56-2.07-3.87-3.08-.75-.58-1.61-1.74-2.66-1.77a3.73,3.73,0,0,0-2.88,2c-.38,1.08.72,1.88,1.54,2.48a141,141,0,0,1,17.42,15q4.08,4.14,7.77,8.63c1.1,1.34,3.34,5.67,5.45,5.61a1.9,1.9,0,0,0,1.28-.63C555.7,456.94,553.52,453.83,551.4,451.39Z"/><path class="cls-6" d="M536.93,464.06c5.06-3.22,10.35-6,15.51-9.09s10-6.54,15.25-9.52c1-.58,2.77-.92,3.38.4.77,1.67-.87,3.09-2.09,3.92-4.64,3.17-9.36,6.22-14.22,9-4.75,3-9.64,5.77-14.6,8.42-1.3.69-3.32,1.48-4.44,0C534.84,466.09,536,464.69,536.93,464.06Z"/><path class="cls-6" d="M534.74,476.33a4.48,4.48,0,0,1,1.26-3.82c3.7-4.05,9.08-5.89,13.82-8.38a111.17,111.17,0,0,0,13.46-8.38c3.85-2.79,7.63-6,12.32-7.21a4.46,4.46,0,0,1,4,.65,6.62,6.62,0,0,1,1.48,2.09c5.76,11.07,11,22.43,16.51,33.64,5.13,10.47,10.2,21,15.29,31.46,2.1,4.32,1.58,8.86-2.13,12.12a86.33,86.33,0,0,1-20.16,12.2c-4.61,1.78-8.87.13-11.73-3.73q-10.4-14.07-20.78-28.14c-7.38-10.06-15-20-22.14-30.22A6.43,6.43,0,0,1,534.74,476.33Z"/><path class="cls-6" d="M532,472.1c7.42-4.72,15.18-8.87,22.74-13.34,7.47-4.63,14.74-9.59,22.37-14,1.48-.85,4.06-1.35,4.95.58,1.14,2.45-1.27,4.54-3,5.75-6.81,4.65-13.73,9.13-20.86,13.25-7,4.41-14.14,8.46-21.41,12.34-1.91,1-4.87,2.18-6.52,0C528.92,475.08,530.55,473,532,472.1Z"/><g class="cls-7"><path class="cls-6" d="M547.66,492.69c19.52.51,39.08-1.51,58.49-3.87,2.67-.33,8.21-1.62,10.6.1s2.86,8,3.57,10.61c.34,1.25,2,4.34.23,5.14a2.45,2.45,0,0,1-1,.17c-24.91,1.08-50.16,2.19-75.13,4.21-1.4.12-4.87,1.09-6.12.5s-1.11-2.08-1.33-3.42c-.43-2.52-.79-5-1.21-7.56-.32-2-2.51-5.08.43-6.11a6.65,6.65,0,0,1,2.67-.18C541.81,492.48,544.73,492.61,547.66,492.69Z"/></g><path class="cls-8" d="M581.05,451.28c5.76,11.07,11,22.43,16.51,33.64,5.13,10.47,10.2,21,15.29,31.46,2.1,4.32,1.58,8.86-2.13,12.12a86.33,86.33,0,0,1-20.16,12.2c-4.61,1.78-8.87.13-11.73-3.73q-10.4-14.07-20.78-28.14c-7.38-10.06-15-20-22.14-30.22"/><g class="cls-9"><path class="cls-8" d="M544.62,486.66a214.78,214.78,0,0,1,24.83,29"/><path class="cls-8" d="M551.6,486.63a215.57,215.57,0,0,1,24.84,29"/><path class="cls-8" d="M558,485.58a215.5,215.5,0,0,1,24.83,29"/><path class="cls-8" d="M564.33,484.53a214.78,214.78,0,0,1,24.83,29"/><path class="cls-8" d="M571.94,485.52a215.69,215.69,0,0,1,24.83,29.05"/><path class="cls-8" d="M578.92,485.5a214.78,214.78,0,0,1,24.83,29"/><path class="cls-8" d="M586.53,486.49a216.3,216.3,0,0,1,24.83,29"/></g></g><g class="cls-5"><path class="cls-6" d="M918.08,1.39a5,5,0,0,0-2.8-3.51c-5.45-2.81-11.81-2.65-17.74-3.44a125.57,125.57,0,0,1-17.37-3.55c-5.12-1.43-10.31-3.31-15.71-2.79a5,5,0,0,0-3.91,2.22,7.35,7.35,0,0,0-.74,2.77c-1.74,13.84-2.85,27.79-4.26,41.67-1.32,13-2.57,25.94-3.84,38.91-.52,5.34,1.78,9.9,6.94,11.88a54.8,54.8,0,0,0,12.76,3.39,55,55,0,0,0,13.11,1.59c5.52.08,9.35-3.3,10.85-8.46q5.45-18.78,10.87-37.56c3.84-13.41,8-26.78,11.5-40.27A7.3,7.3,0,0,0,918.08,1.39Z"/><path class="cls-6" d="M919.32-4.11c-9.61-2.08-19.35-3.41-29-5.16-9.62-2-19.17-4.34-28.86-6-1.88-.32-4.78.17-5,2.53-.24,3,3.09,4.27,5.44,4.85,8.93,2.23,17.93,4.24,27,5.8,9,1.92,18.1,3.39,27.23,4.63,2.39.33,6,.4,6.85-2.48C923.7-2.18,921.19-3.7,919.32-4.11Z"/><g class="cls-10"><path class="cls-11" d="M910.88,23.55c-20.27,8.11-41.56,13.58-62.83,18.63-2.93.69-9.23,1.49-11.07,4.21s.09,9.47.37,12.52c.13,1.44-.38,5.3,1.75,5.48a2.92,2.92,0,0,0,1.09-.2c26.53-8.54,53.43-17.16,80.4-24.73,1.52-.42,5.53-.75,6.61-1.84s.35-2.62.07-4.11c-.53-2.8-1.13-5.59-1.67-8.4-.43-2.19.66-6.29-2.82-6.23a7.43,7.43,0,0,0-2.87.85Q915.44,21.74,910.88,23.55Z"/></g><path class="cls-8" d="M859.81-6.91c-1.74,13.84-2.85,27.79-4.26,41.67-1.32,13-2.57,25.94-3.84,38.91-.52,5.34,1.78,9.9,6.94,11.88a54.8,54.8,0,0,0,12.76,3.39,55,55,0,0,0,13.11,1.59c5.52.08,9.35-3.3,10.85-8.46q5.45-18.78,10.87-37.56c3.84-13.41,8-26.78,11.5-40.27"/><g class="cls-12"><path class="cls-8" d="M911.73,16.05A241.41,241.41,0,0,0,897,56.13"/><path class="cls-8" d="M904.39,18.73a240.48,240.48,0,0,0-14.77,40.08"/><path class="cls-8" d="M897.31,20.1a240.16,240.16,0,0,0-14.77,40.08"/><path class="cls-8" d="M890.23,21.46a240.48,240.48,0,0,0-14.77,40.08"/><path class="cls-8" d="M882.65,25.46a241.08,241.08,0,0,0-14.78,40.08"/><path class="cls-8" d="M875.31,28.14a240.16,240.16,0,0,0-14.77,40.08"/><path class="cls-8" d="M867.73,32.13A241.41,241.41,0,0,0,853,72.21"/></g></g><g class="cls-5"><path class="cls-6" d="M949.61,678.86c1-1,1.93-1.93,2.39-2.41A112.71,112.71,0,0,1,968,662c1.09-.83,2.18-1.65,3.29-2.45.65-.46,1.4-1.4,2.26-1.4a2.87,2.87,0,0,1,2.23,1.7c.26.89-.67,1.53-1.36,2a121.94,121.94,0,0,0-14.89,12q-3.51,3.33-6.73,6.95c-1,1.08-3,4.59-4.7,4.5a1.49,1.49,0,0,1-1-.55C945.85,683.35,947.76,680.82,949.61,678.86Z"/><path class="cls-6" d="M960.73,689.63c-3.94-2.76-8.1-5.21-12.14-7.84s-7.84-5.61-11.91-8.19c-.8-.5-2.21-.82-2.77.25-.71,1.36.55,2.57,1.5,3.28,3.61,2.72,7.3,5.34,11.11,7.77,3.7,2.58,7.54,5,11.44,7.26,1,.6,2.62,1.3,3.6.12C962.34,691.36,961.5,690.17,960.73,689.63Z"/><path class="cls-6" d="M961.92,699.8a3.66,3.66,0,0,0-.84-3.18c-2.8-3.42-7.09-5.06-10.81-7.22a85.85,85.85,0,0,1-10.52-7.21c-3-2.38-5.9-5.09-9.65-6.22a3.62,3.62,0,0,0-3.26.45,5.42,5.42,0,0,0-1.3,1.69c-5.22,9-10,18.25-15.06,27.37-4.68,8.52-9.31,17.06-14,25.59-1.92,3.52-1.72,7.27,1.13,10a66,66,0,0,0,15.78,10.52c3.65,1.57,7.2.31,9.7-2.81q9.14-11.37,18.26-22.74c6.49-8.13,13.16-16.15,19.47-24.43A5.71,5.71,0,0,0,961.92,699.8Z"/><path class="cls-6" d="M964.35,696.37c-5.79-4.06-11.89-7.65-17.81-11.51s-11.5-8.23-17.48-12c-1.16-.74-3.23-1.2-4,.37-1,2,.81,3.77,2.2,4.81,5.3,4,10.7,7.83,16.29,11.39,5.44,3.79,11.07,7.3,16.78,10.66,1.5.88,3.85,1.9,5.29.18C966.7,698.9,965.48,697.16,964.35,696.37Z"/><g class="cls-13"><path class="cls-6" d="M950.62,713c-15.88,0-31.66-2.12-47.31-4.5-2.15-.33-6.59-1.52-8.61-.15s-2.71,6.5-3.42,8.67c-.34,1-1.81,3.53-.44,4.23a2.05,2.05,0,0,0,.78.16c20.18,1.44,40.62,2.93,60.8,5.15,1.14.13,3.91,1,5,.55s1-1.69,1.25-2.79c.47-2.07.89-4.14,1.35-6.21.36-1.62,2.29-4.13-.05-5.05a5.38,5.38,0,0,0-2.16-.2C955.38,713,953,713,950.62,713Z"/></g><path class="cls-8" d="M925.54,678.11c-5.22,9-10,18.25-15.06,27.37-4.68,8.52-9.31,17.06-14,25.59-1.92,3.52-1.72,7.27,1.13,10a66,66,0,0,0,15.78,10.52c3.65,1.57,7.2.31,9.7-2.81q9.14-11.37,18.26-22.74c6.49-8.13,13.16-16.15,19.47-24.43"/><g class="cls-14"><path class="cls-8" d="M953.38,708.09a185.53,185.53,0,0,0-21.59,23.4"/><path class="cls-8" d="M947.71,707.91a186.22,186.22,0,0,0-21.59,23.4"/><path class="cls-8" d="M942.6,706.91A184.71,184.71,0,0,0,921,730.3"/><path class="cls-8" d="M937.48,705.9a185.39,185.39,0,0,0-21.59,23.39"/><path class="cls-8" d="M931.26,706.55a185.39,185.39,0,0,0-21.59,23.39"/><path class="cls-8" d="M925.59,706.37A184.65,184.65,0,0,0,904,729.76"/><path class="cls-8" d="M919.36,707a185.53,185.53,0,0,0-21.59,23.4"/></g></g><g class="cls-5"><path class="cls-6" d="M1093.77,38.91h-.08c-11.34-1.95-23.24-4.21-34.76-4.2a16.51,16.51,0,0,1-3.85-.08c-2.77-.65-1.92-3-2.48-5.11a8.23,8.23,0,0,0-3.63-4.89c-1-.58-2.06-.95-3-1.58-1.67-1.09-2-2.65-1.76-4.51,2-11.38,4.24-23.34,4.23-34.91a17,17,0,0,1,.07-3.84c.66-2.77,3-1.93,5.12-2.49a8.23,8.23,0,0,0,4.88-3.62c.59-1,1-2.06,1.58-3,1.12-1.71,2.72-2,4.63-1.76q17.52,2.33,35,4.6c11.34,1.95,23.24,4.21,34.76,4.21a16.51,16.51,0,0,1,3.85.07c2.77.65,1.92,3,2.48,5.11a8.23,8.23,0,0,0,3.63,4.89c1,.58,2.06,1,3,1.58,1.67,1.1,2,2.65,1.76,4.51-2,11.38-4.24,23.34-4.23,34.91a17,17,0,0,1-.07,3.84c-.66,2.77-3,1.93-5.12,2.49a8.23,8.23,0,0,0-4.88,3.62c-.59,1-1,2.07-1.58,3-1.12,1.71-2.72,2-4.63,1.76Q1111.25,41.19,1093.77,38.91Z"/><path class="cls-15" d="M1058.22,29.12a9.23,9.23,0,0,0-.23-1.06,13.87,13.87,0,0,0-6.14-8.23c-.68-.41-1.31-.7-1.86-1l-.17-.07.43-2.49c1.86-10.67,3.77-21.7,3.77-32.68,0-.23,0-.47,0-.7.34-.06.7-.13,1.07-.23a13.87,13.87,0,0,0,8.23-6.15c.4-.68.7-1.3,1-1.86l.09-.19q11.94,1.59,23.8,3.13l10.77,1.4,2.93.51c5.61,1,11.41,2,17.24,2.71a125.4,125.4,0,0,0,15.42,1.05h.71c.06.34.13.7.23,1.06a13.81,13.81,0,0,0,6.15,8.23,18.8,18.8,0,0,0,1.85,1l.17.08-.44,2.52c-1.85,10.65-3.76,21.67-3.76,32.64,0,.23,0,.47,0,.7-.33.06-.69.13-1.06.23a13.87,13.87,0,0,0-8.23,6.15c-.4.68-.7,1.3-1,1.86l-.09.19-25.18-3.3-9.37-1.23-3-.51c-5.61-1-11.41-2-17.24-2.71a125.4,125.4,0,0,0-15.42-1.05Z"/><text class="cls-16" transform="translate(1062.76 17.45) rotate(7.08)">TICKET</text></g><g class="cls-5"><path class="cls-6" d="M444,48.23h-.08c-11.39,1.65-23.4,3.18-34.36,6.74a17.08,17.08,0,0,1-3.67,1.12c-2.84.23-2.77-2.29-4-4.1a8.21,8.21,0,0,0-5-3.52c-1.1-.26-2.26-.28-3.35-.58-1.93-.52-2.72-1.9-3.07-3.74-1.66-11.43-3.18-23.51-6.76-34.51A16.62,16.62,0,0,1,382.7,6C382.46,3.13,385,3.2,386.79,2a8.19,8.19,0,0,0,3.53-5c.26-1.11.27-2.26.57-3.35.54-2,2-2.75,3.86-3.1q17.38-3.21,34.75-6.46c11.39-1.65,23.4-3.17,34.36-6.74a17.08,17.08,0,0,1,3.67-1.12c2.84-.23,2.77,2.29,4,4.1a8.23,8.23,0,0,0,5,3.53c1.1.25,2.26.27,3.35.57,1.93.52,2.72,1.91,3.07,3.74,1.66,11.43,3.18,23.51,6.76,34.51a16.62,16.62,0,0,1,1.12,3.68c.24,2.84-2.29,2.77-4.09,3.94a8.22,8.22,0,0,0-3.53,5c-.26,1.11-.27,2.26-.57,3.35-.54,2-2,2.75-3.86,3.1Q461.35,45,444,48.23Z"/><path class="cls-15" d="M407.19,49.9a10.38,10.38,0,0,0-.55-.94A13.81,13.81,0,0,0,398.25,43a17.56,17.56,0,0,0-2.06-.34l-.18,0-.36-2.5c-1.54-10.72-3.12-21.8-6.52-32.24-.07-.22-.15-.44-.23-.66a10.38,10.38,0,0,0,.94-.55,13.81,13.81,0,0,0,5.93-8.39c.17-.77.26-1.46.34-2.06l0-.21,23.6-4.39,10.67-2,2.95-.42c5.63-.81,11.46-1.64,17.23-2.75a127,127,0,0,0,15-3.76l.66-.23c.16.3.34.62.55.94a13.76,13.76,0,0,0,8.39,5.92,20.21,20.21,0,0,0,2.06.35l.18,0,.37,2.53c1.53,10.71,3.12,21.78,6.51,32.21.07.22.15.44.23.66-.3.16-.62.34-.94.55a13.87,13.87,0,0,0-5.93,8.39c-.17.77-.26,1.46-.34,2.06l0,.22-25,4.63-9.29,1.73-3,.43c-5.63.81-11.46,1.64-17.23,2.76a123.17,123.17,0,0,0-15,3.76Z"/><text class="cls-16" transform="translate(407.91 37.37) rotate(-10.92)">TICKET</text></g><g class="cls-5"><path class="cls-6" d="M381.29,758.2l-.08,0c-11-3.5-22.43-7.38-33.84-9a16.2,16.2,0,0,1-3.8-.6c-2.66-1-1.49-3.27-1.76-5.4a8.22,8.22,0,0,0-2.92-5.34c-.88-.72-1.91-1.24-2.76-2-1.51-1.32-1.61-2.91-1.13-4.71,3.5-11,7.41-22.54,9-34a16.11,16.11,0,0,1,.6-3.79c1-2.66,3.27-1.5,5.4-1.76a8.26,8.26,0,0,0,5.35-2.92c.71-.88,1.23-1.91,2-2.77,1.35-1.53,3-1.61,4.83-1.1q17,4.71,34.08,9.38c11,3.49,22.43,7.37,33.84,8.95a16.2,16.2,0,0,1,3.8.6c2.66,1,1.49,3.27,1.76,5.41a8.27,8.27,0,0,0,2.92,5.34c.88.71,1.91,1.23,2.76,2,1.51,1.32,1.61,2.91,1.13,4.71-3.5,11-7.41,22.54-9,34a16.2,16.2,0,0,1-.6,3.8c-1,2.65-3.27,1.49-5.41,1.76a8.21,8.21,0,0,0-5.34,2.91c-.71.89-1.23,1.91-2,2.77-1.35,1.54-3,1.61-4.83,1.1Q398.29,762.86,381.29,758.2Z"/><path class="cls-15" d="M347.43,743.61a10.56,10.56,0,0,0-.08-1.09,13.79,13.79,0,0,0-5-9c-.62-.5-1.2-.88-1.71-1.22l-.15-.1.77-2.4c3.3-10.31,6.72-21,8.22-31.85l.09-.7a10.58,10.58,0,0,0,1.08-.08,13.81,13.81,0,0,0,9-5c.49-.61.87-1.19,1.21-1.7l.12-.18q11.6,3.21,23.14,6.37l10.47,2.87,2.83.91c5.42,1.74,11,3.53,16.71,5a124.06,124.06,0,0,0,15.13,3.17l.7.09a10.58,10.58,0,0,0,.08,1.08,13.81,13.81,0,0,0,5,9c.61.49,1.19.87,1.7,1.21l.15.1-.78,2.44c-3.3,10.3-6.71,21-8.21,31.81l-.09.7a10.58,10.58,0,0,0-1.08.08,13.85,13.85,0,0,0-9,5c-.49.61-.87,1.19-1.21,1.7l-.12.18q-12.27-3.39-24.48-6.73l-9.11-2.51-2.85-.91c-5.42-1.74-11-3.53-16.71-5a124.06,124.06,0,0,0-15.13-3.17Z"/><text class="cls-16" transform="matrix(0.97, 0.26, -0.26, 0.97, 353.48, 732.66)">TICKET</text></g><g class="cls-5"><path class="cls-6" d="M264.93,431.07h-.07c-10.7-1.84-21.93-4-32.8-4a15.73,15.73,0,0,1-3.63-.07c-2.62-.62-1.82-2.86-2.35-4.82a7.76,7.76,0,0,0-3.42-4.62c-.91-.55-1.94-.9-2.84-1.49-1.58-1-1.88-2.5-1.66-4.25,1.84-10.75,4-22,4-32.94a15.73,15.73,0,0,1,.07-3.63c.62-2.62,2.86-1.82,4.83-2.35a7.74,7.74,0,0,0,4.61-3.42c.55-.92.9-1.94,1.49-2.84,1.06-1.61,2.56-1.89,4.36-1.65l33.07,4.33c10.7,1.84,21.93,4,32.8,4a15.73,15.73,0,0,1,3.63.07c2.62.62,1.82,2.86,2.35,4.83a7.77,7.77,0,0,0,3.42,4.61c.91.55,1.94.9,2.84,1.49,1.58,1,1.88,2.5,1.66,4.25-1.84,10.75-4,22-4,32.95a15.65,15.65,0,0,1-.07,3.62c-.62,2.62-2.86,1.82-4.83,2.35a7.74,7.74,0,0,0-4.61,3.42c-.55.92-.9,2-1.49,2.84-1.06,1.61-2.56,1.89-4.36,1.66Q281.43,433.21,264.93,431.07Z"/><path class="cls-15" d="M231.39,421.83a9.94,9.94,0,0,0-.21-1,13.14,13.14,0,0,0-5.8-7.77c-.64-.38-1.23-.66-1.76-.91l-.15-.07.4-2.35c1.75-10.07,3.56-20.48,3.56-30.84,0-.22,0-.44,0-.66a8.39,8.39,0,0,0,1-.22,13,13,0,0,0,7.76-5.8c.38-.64.66-1.23.91-1.75l.09-.18,22.45,3,10.16,1.32,2.77.48c5.3.92,10.77,1.87,16.27,2.56a118.35,118.35,0,0,0,14.55,1l.67,0a8.39,8.39,0,0,0,.22,1,13,13,0,0,0,5.8,7.76c.63.38,1.23.66,1.75.91l.15.08-.41,2.37c-1.74,10.06-3.55,20.46-3.55,30.81,0,.22,0,.44,0,.66a7.85,7.85,0,0,0-1,.22,13,13,0,0,0-7.77,5.8,18.77,18.77,0,0,0-.91,1.75l-.09.18L274.51,427l-8.84-1.15-2.79-.48c-5.29-.92-10.77-1.87-16.27-2.56a118.2,118.2,0,0,0-14.55-1Z"/><text class="cls-17" transform="translate(235.67 410.82) rotate(7.08)">TICKET</text></g><path class="cls-18" d="M577.8,610.81a1.61,1.61,0,0,1,2.34-1.33,39.39,39.39,0,0,1,5.32,3.55c1.55,1.17,4.42,4.52,6.44,4.54a5.75,5.75,0,0,0,2.24-.6l8.46-3.54a22.63,22.63,0,0,1,2.34-.74,1.32,1.32,0,0,1,1.61,1.64c-.7,2.43-1.75,6-1.89,6.43-.56,1.5-1.86,3.74-2.06,5.66a3.15,3.15,0,0,0,.8,2.41c1.16,1.3,11.78,11,8,12.29-4,1.4-8.71.34-12.81.15-3.48-.17-4.64,3.6-6.34,6.2-1,1.5-2.09,3.89-3.38,5.67a1.6,1.6,0,0,1-2.79-.33c-1.22-3.15-2-6.65-3-9.79a10,10,0,0,0-1.09-2.5,5.66,5.66,0,0,0-3.45-1.93c-3.32-.93-7-1.59-10.35-2.74a1.6,1.6,0,0,1-.54-2.7c2.92-2.67,6.9-4.94,9.9-7.21a2.9,2.9,0,0,0,1-1.18,2.87,2.87,0,0,0,.1-1.13C578.52,619.81,577.53,614.89,577.8,610.81Z"/><path class="cls-18" d="M799.71,741.88a2.63,2.63,0,0,1,4.29,1,63.83,63.83,0,0,1,2.46,10.19c.56,3.14.3,10.37,2.7,12.64a9.49,9.49,0,0,0,3.37,1.78l14.12,5.15a31.22,31.22,0,0,1,3.65,1.72,2.16,2.16,0,0,1,.11,3.76c-3.54,2.14-8.84,5.34-9.43,5.64-2.33,1.18-6.4,2.44-8.77,4.53a5.16,5.16,0,0,0-1.73,3.79c-.06,2.86,2,26.33-4,23.75-6.35-2.74-10.86-9.28-15.58-14.08-4-4.07-9.6-.82-14.55.42-2.84.72-6.83,2.36-10.38,3.07a2.63,2.63,0,0,1-3-3.51c2-5.15,5-10.24,7.25-15.16a15.59,15.59,0,0,0,1.48-4.22c.33-2.32-.84-4.25-2-6.15-3-4.82-6.67-9.73-9.42-14.83a2.62,2.62,0,0,1,2.35-3.85c6.5,0,13.82,1.73,20,2.32a4.69,4.69,0,0,0,2.58-.24,4.79,4.79,0,0,0,1.37-1.25C790.56,753.52,794.83,746.48,799.71,741.88Z"/><path class="cls-18" d="M465.8,506.4a1.38,1.38,0,0,1,2.28-.36,32.63,32.63,0,0,1,3.21,4.45c.9,1.42,2.2,5,3.82,5.6a4.87,4.87,0,0,0,2,.19L485,516a18.26,18.26,0,0,1,2.1.11,1.13,1.13,0,0,1,.8,1.8c-1.29,1.74-3.23,4.34-3.46,4.61-.89,1-2.62,2.45-3.36,3.93a2.71,2.71,0,0,0-.08,2.18c.54,1.4,6.17,12.39,2.76,12.32-3.62-.07-7.11-2.35-10.35-3.75-2.75-1.18-4.82,1.51-7,3.09-1.24.91-2.85,2.49-4.43,3.54a1.38,1.38,0,0,1-2.15-1.11c0-2.9.39-6,.52-8.79a8.33,8.33,0,0,0-.12-2.34A4.88,4.88,0,0,0,458,529c-2.4-1.75-5.17-3.4-7.51-5.32a1.38,1.38,0,0,1,.38-2.34c3.16-1.27,7-1.89,10.14-2.83a2.47,2.47,0,0,0,1.2-.62,2.39,2.39,0,0,0,.42-.88C463.67,513.86,464.35,509.6,465.8,506.4Z"/><path class="cls-18" d="M507.46,288.81a1.38,1.38,0,0,1,1.8-1.44,33.16,33.16,0,0,1,5,2.31c1.47.79,4.35,3.25,6.07,3a5,5,0,0,0,1.82-.81l6.72-4.12a16.63,16.63,0,0,1,1.89-.94,1.13,1.13,0,0,1,1.58,1.18c-.27,2.14-.68,5.36-.75,5.7-.27,1.35-1.08,3.43-1,5.08a2.72,2.72,0,0,0,1,1.94c1.16,1,11.46,7.76,8.46,9.37-3.19,1.72-7.35,1.45-10.85,1.83-3,.32-3.47,3.67-4.56,6.11-.64,1.4-1.26,3.57-2.12,5.26a1.38,1.38,0,0,1-2.42.09c-1.45-2.52-2.58-5.38-3.86-7.91a8.32,8.32,0,0,0-1.26-2,4.86,4.86,0,0,0-3.18-1.18c-2.94-.35-6.17-.42-9.16-.95a1.37,1.37,0,0,1-.81-2.22c2.13-2.66,5.2-5.11,7.44-7.44a2.48,2.48,0,0,0,.74-1.14,2.28,2.28,0,0,0-.07-1C509.26,296.36,507.76,292.31,507.46,288.81Z"/><path class="cls-18" d="M39.46,132.36a1.63,1.63,0,0,1,1.5-2.27,39.63,39.63,0,0,1,6.42.77c1.93.35,6.06,2,7.88,1.15A6,6,0,0,0,57,130.45q3-3.54,6-7.06a19.85,19.85,0,0,1,1.78-1.74,1.33,1.33,0,0,1,2.19.75c.48,2.5,1.19,6.25,1.24,6.66.18,1.6,0,4.22.73,6a3.23,3.23,0,0,0,1.82,1.82c1.64.64,15.65,4.51,12.87,7.41-3,3.08-7.7,4.29-11.48,6-3.22,1.45-2.54,5.38-2.89,8.5-.2,1.8-.11,4.46-.46,6.66a1.62,1.62,0,0,1-2.67,1c-2.54-2.29-4.85-5.09-7.2-7.45a9.37,9.37,0,0,0-2.12-1.76,5.7,5.7,0,0,0-4-.16c-3.42.67-7.06,1.76-10.6,2.26a1.62,1.62,0,0,1-1.72-2.19c1.42-3.75,4-7.62,5.63-11a2.89,2.89,0,0,0,.42-1.54,3,3,0,0,0-.43-1.06C44.23,140.15,41.08,136.17,39.46,132.36Z"/><g class="cls-5"><path class="cls-19" d="M854.36,636.55a8,8,0,0,1,2.09,1.37c2.4,2.19,3,5.8,2.47,9-1.17,6.79-7.09,10.73-13.84,8.46A10.7,10.7,0,0,1,838,647.3c-1.33-7.91,7.24-13,14.19-11.46A11.11,11.11,0,0,1,854.36,636.55Z"/><path class="cls-19" d="M850.9,642a3.35,3.35,0,0,1,.87.57,4.07,4.07,0,0,1,1,3.71,4.22,4.22,0,0,1-5.71,3.49,4.41,4.41,0,0,1-2.93-3.33c-.54-3.26,3-5.37,5.86-4.73A4.41,4.41,0,0,1,850.9,642Z"/></g><g class="cls-5"><path class="cls-19" d="M1010.36,126.55a8,8,0,0,1,2.09,1.37c2.4,2.19,3,5.8,2.47,9-1.17,6.79-7.09,10.73-13.84,8.46A10.7,10.7,0,0,1,994,137.3c-1.33-7.91,7.24-13,14.19-11.46A11.11,11.11,0,0,1,1010.36,126.55Z"/><path class="cls-19" d="M1006.9,132a3.35,3.35,0,0,1,.87.57,4.07,4.07,0,0,1,1,3.71,4.22,4.22,0,0,1-5.71,3.49,4.41,4.41,0,0,1-2.93-3.33c-.54-3.26,3-5.37,5.86-4.73A4.41,4.41,0,0,1,1006.9,132Z"/></g><g class="cls-5"><path class="cls-19" d="M994.36,324.55a8,8,0,0,1,2.09,1.37c2.4,2.19,3,5.8,2.47,9-1.17,6.79-7.09,10.73-13.84,8.46A10.7,10.7,0,0,1,978,335.3c-1.33-7.91,7.24-13,14.19-11.46A11.11,11.11,0,0,1,994.36,324.55Z"/><path class="cls-19" d="M990.9,330a3.35,3.35,0,0,1,.87.57,4.07,4.07,0,0,1,1,3.71,4.22,4.22,0,0,1-5.71,3.49,4.41,4.41,0,0,1-2.93-3.33c-.54-3.26,3-5.37,5.86-4.73A4.41,4.41,0,0,1,990.9,330Z"/></g><g class="cls-5"><path class="cls-19" d="M222.36,106.55a8,8,0,0,1,2.09,1.37c2.4,2.19,3,5.8,2.47,9-1.17,6.79-7.09,10.73-13.84,8.46A10.7,10.7,0,0,1,206,117.3c-1.33-7.91,7.24-13,14.19-11.46A11.11,11.11,0,0,1,222.36,106.55Z"/><path class="cls-19" d="M218.9,112a3.35,3.35,0,0,1,.87.57,4.07,4.07,0,0,1,1,3.71,4.22,4.22,0,0,1-5.71,3.49,4.41,4.41,0,0,1-2.93-3.33c-.54-3.26,3-5.37,5.86-4.73A4.41,4.41,0,0,1,218.9,112Z"/></g><path class="cls-18" d="M990,521.69a.8.8,0,0,1-.2-.15,6.36,6.36,0,0,0-2.88-1.14l-.9-.13c-10.36-1.32-21-1.36-28.23-10.1-4.77-5.77-5.23-16.74,3.5-18.9,3-.74,6.08-.33,9.1.09-1.23-.13,1.51-7.89,1.88-8.5,4.28-7,14.54-8,20.74-3.08,6.91,5.48,6.29,15,3.05,22.37-.34.76-.63,1.52-.91,2.3s-.65,1.84-1,2.77-.64,2-1,3-.61,2-.9,3.08-.55,1.93-.81,2.9-.45,1.66-.67,2.49l-.4,1.51c-.06.25-.12.51-.19.76l-.09.39c0,.08,0,.22-.07.29A.09.09,0,0,1,990,521.69Z"/><path class="cls-18" d="M644.67,374.71a1.2,1.2,0,0,1,0-.28,7.18,7.18,0,0,0-.58-3.48c-.13-.32-.26-.64-.4-1-4.82-10.87-11.07-21.29-6.81-33.47,2.82-8,13.25-15,20.5-7.73,2.47,2.46,3.9,5.73,5.28,8.92-.6-1.27,8.57-3.17,9.39-3.17,9.35,0,16.37,9.46,15.23,18.4-1.27,10-10.95,15-20,16.16-.93.12-1.86.28-2.78.46-1.09.22-2.18.46-3.27.71s-2.35.56-3.52.86-2.35.62-3.53.94-2.2.6-3.3.92c-.95.26-1.89.54-2.84.81l-1.69.51-.86.26-.43.14c-.09,0-.23.13-.32.1A.11.11,0,0,1,644.67,374.71Z"/><path class="cls-18" d="M354.67,254.71a1.2,1.2,0,0,1,0-.28,7.18,7.18,0,0,0-.58-3.48c-.13-.32-.26-.64-.4-1-4.82-10.87-11.07-21.29-6.81-33.47,2.82-8.05,13.25-15,20.5-7.73,2.47,2.46,3.9,5.73,5.28,8.92-.6-1.27,8.57-3.17,9.39-3.17,9.35,0,16.37,9.46,15.23,18.4-1.27,10-10.95,15-20,16.16-.93.12-1.86.28-2.78.46-1.09.22-2.18.46-3.27.71s-2.35.56-3.52.86-2.35.62-3.53.94-2.2.6-3.3.92c-.95.26-1.89.54-2.84.81l-1.69.51-.86.26-.43.14c-.09,0-.23.13-.32.1A.11.11,0,0,1,354.67,254.71Z"/><path class="cls-18" d="M913.8,257a.72.72,0,0,1,0-.25,6.23,6.23,0,0,0-1.17-2.84c-.17-.25-.35-.5-.53-.74-6.2-8.32-13.53-16-12.26-27.15.84-7.4,8.37-15.3,15.94-10.54,2.57,1.61,4.43,4.12,6.22,6.57-.76-1,6.67-4.37,7.37-4.52,8-1.78,15.75,4.88,16.51,12.71.85,8.72-6.41,14.87-13.9,17.61-.76.28-1.52.6-2.27.93s-1.76.81-2.64,1.23-1.89.94-2.83,1.42l-2.82,1.48c-.88.47-1.76.94-2.63,1.42l-2.25,1.24-1.35.76-.68.39-.34.2c-.07,0-.16.15-.25.15A.09.09,0,0,1,913.8,257Z"/><g class="cls-5"><path class="cls-6" d="M611.36,183.55a8,8,0,0,1,2.09,1.37c2.4,2.19,3,5.8,2.47,9-1.17,6.79-7.09,10.73-13.84,8.46A10.7,10.7,0,0,1,595,194.3c-1.33-7.91,7.24-13,14.19-11.46A11.11,11.11,0,0,1,611.36,183.55Z"/><path class="cls-6" d="M607.9,189a3.35,3.35,0,0,1,.87.57,4.07,4.07,0,0,1,1,3.71,4.22,4.22,0,0,1-5.71,3.49,4.41,4.41,0,0,1-2.93-3.33c-.54-3.26,3-5.37,5.86-4.73A4.41,4.41,0,0,1,607.9,189Z"/></g><path class="cls-18" d="M684.47,88.08a1,1,0,0,1,0-.24,6.18,6.18,0,0,0-.84-3c-.14-.27-.29-.54-.44-.8-5.22-9-11.63-17.4-9.1-28.37,1.67-7.25,10-14.25,17-8.66,2.37,1.89,3.93,4.6,5.43,7.23-.64-1.05,7.13-3.58,7.84-3.65,8.11-.86,15.1,6.63,15,14.5-.15,8.76-8.07,14.05-15.81,15.92-.79.19-1.58.42-2.36.67-.93.29-1.85.6-2.77.92s-2,.72-3,1.09l-3,1.15L689.7,86l-2.37,1-1.43.6-.72.31-.36.16c-.07,0-.18.14-.27.12S684.48,88.12,684.47,88.08Z"/><g class="cls-5"><path class="cls-6" d="M868.28,476.72c-2,14.81-14.55,24.47-29,26.75C816.88,507,795.48,490.24,795.84,467c.22-13.94,9-27.68,22-32.93,25.18-10.12,51.47,14.42,50.65,39.57A30.71,30.71,0,0,1,868.28,476.72Z"/><path class="cls-8" d="M816.21,476.23a50.8,50.8,0,0,0,2.68,6.26c1.88,3.59,6.76,7.79,9.62,2.6,1.74-3.17.75-7.73-.27-11q-2.58-8.25-5.17-16.49c-.65-2.09-1.48-4.4-3.42-5.42-2.53-1.34-5.85.36-7.11,2.93-2.23,4.53.33,10.75,1.73,15.21C814.89,472.31,815.51,474.28,816.21,476.23Z"/><path class="cls-8" d="M848.86,465.16a51.46,51.46,0,0,1,1.68,6.6c.7,4-.63,10.3-6,7.91-3.31-1.45-5.3-5.68-6.47-8.88l-5.92-16.23c-.76-2.06-1.51-4.39-.59-6.38,1.2-2.6,4.87-3.28,7.43-2,4.52,2.25,6.28,8.74,7.88,13.14C847.52,461.25,848.23,463.19,848.86,465.16Z"/></g><g class="cls-5"><path class="cls-6" d="M1156.55,213.05c-6.62,13.39-21.63,18.51-36.07,16-22.33-3.84-37.21-26.59-29.41-48.48,4.68-13.14,17.4-23.33,31.45-24.11,27.09-1.5,44.11,30.18,35.26,53.74C1157.41,211.2,1157,212.14,1156.55,213.05Z"/><path class="cls-8" d="M1107.4,195.87a49.84,49.84,0,0,0,.53,6.79c.62,4,3.9,9.55,8.27,5.55,2.67-2.44,3.19-7.08,3.27-10.49q.21-8.62.4-17.27c.05-2.19,0-4.64-1.5-6.23-2-2.08-5.66-1.54-7.67.48-3.57,3.58-3.15,10.3-3.25,15C1107.41,191.74,1107.36,193.8,1107.4,195.87Z"/><path class="cls-8" d="M1141.87,195.87a49.84,49.84,0,0,1-.53,6.79c-.62,4-3.9,9.55-8.27,5.55-2.67-2.44-3.19-7.08-3.27-10.49q-.21-8.62-.4-17.27c-.05-2.19,0-4.64,1.5-6.23,2-2.08,5.66-1.54,7.67.48,3.57,3.58,3.15,10.3,3.25,15C1141.86,191.74,1141.91,193.8,1141.87,195.87Z"/></g><g class="cls-5"><path class="cls-6" d="M139.56,316.05c-13.39-6.62-18.51-21.63-16-36.07,3.84-22.33,26.59-37.21,48.48-29.41,13.13,4.68,23.33,17.39,24.11,31.45,1.5,27.09-30.18,44.11-53.74,35.26A30.17,30.17,0,0,1,139.56,316.05Z"/><path class="cls-15" d="M148.08,266.15c-.25,1.16,13.86,7.24,15.38,8.18,2.2,1.34,4.35,2.74,6.51,4.14.78.5,5.83,4.41,6.51,4.07-3.06,1.55-5.9,3.57-8.94,5.21q-5.1,2.78-10.07,5.78c-2.75,1.68-6.27,4.4-9.28,5.29-1-4.82-.33-10.63-.35-15.57C147.82,277.87,147,271.42,148.08,266.15Z"/></g><g class="cls-5"><path class="cls-6" d="M723.09,646.05c-5.1-6.7-3.92-15.55.95-22.21,7.53-10.3,22.73-12.11,31.82-2.7,5.45,5.65,7.41,14.62,4.28,21.9-6,14.05-26.26,14.69-35.93,4.33A15.07,15.07,0,0,1,723.09,646.05Z"/><path class="cls-15" d="M739.88,623c-.42.52,5.18,7.12,5.71,8,.77,1.23,1.51,2.48,2.25,3.72.27.45,1.84,3.69,2.26,3.68-1.93,0-3.87.33-5.81.4-2.18.08-4.36.2-6.53.39-1.81.15-4.26.65-6,.35.69-2.69,2.49-5.45,3.72-7.95C736.81,628.85,738,625.38,739.88,623Z"/></g><g class="cls-5"><path class="cls-6" d="M1259.17,577.49c5.2-3.56,37.32-19.44,43.48-18.49a15,15,0,0,1,12.26,12.64,4.94,4.94,0,0,1-.23,2.59c-1.34,3-4,.11-4.85-1.53-1.08-2-2-4.22-4.09-5.43-10.46-6.07-43.17,27.82-51.52,29.76a10.42,10.42,0,0,1-4.54-.22c-2.41-.5-5.06-.52-7.36-1.47-1.21-.5-2.3-1.73-2-3a3.83,3.83,0,0,1,1.13-1.67C1246.69,585.37,1253,581.71,1259.17,577.49Z"/><path class="cls-6" d="M1360,543.75c-6.29.28-41.5,6.92-45.85,11.39a15,15,0,0,0-2.19,17.47,5,5,0,0,0,1.74,1.94c2.91,1.62,3.25-2.32,3-4.15-.37-2.28-1-4.57,0-6.8,4.71-11.14,51.23-3.75,59.06-7.22a10.64,10.64,0,0,0,3.5-2.91c1.62-1.85,3.73-3.46,5-5.6.67-1.13.8-2.77-.21-3.6a3.7,3.7,0,0,0-1.9-.65C1374.75,542.53,1367.52,543.41,1360,543.75Z"/><path class="cls-6" d="M1387.27,547.69c-.4-1.13-.39-1.33-.92-2.93s-2-.46-3.31,0c-3.34,1.12-6.65,2.14-9.78,3.28-5,1.81-9.6,3.31-14.67,4.9-10.15,3.19-20.24,6.77-30.32,10.15l-15.66,5.21L1297,573.54c-10.09,3.37-20.3,6.58-30.32,10.14-5,1.78-9.59,3.35-14.68,4.91-3.18,1-6.44,2.15-9.78,3.27-1.32.44-3.14.46-2.63,2s.66,1.75,1,2.9c3.23,10.21,7.05,21.11,10.46,31.29,1,3,3.6,4,6.21,5.48,3.06,1.72,5.79,4,8.88,5.63s6.74,2.78,10.22,1.92c3.79-.92,7.87-2.37,11.55-3.61,7.06-2.38,13.5-4.51,20.54-6.87,2.65-.89,6.39-1.88,7.67-4.69a8,8,0,0,0,.48-1.43q1.31-5.43,2.43-10.91c.6-2.94.79-6.26,2.14-9a4.88,4.88,0,0,1,1.93-1.75,3,3,0,0,1,1-.33,2.9,2.9,0,0,1,1-.32,4.69,4.69,0,0,1,2.58.23c2.72,1.35,4.86,3.88,7.11,5.87q4.18,3.69,8.5,7.25a7.8,7.8,0,0,0,1.25.86c2.71,1.47,6.3,0,8.94-.87,7-2.35,13.48-4.52,20.54-6.87,3.69-1.23,7.82-2.53,11.41-4.07,3.29-1.41,5.56-4.51,7-7.68s2.3-6.63,3.71-9.84c1.2-2.74,2.67-5.1,1.66-8.12C1394.34,568.79,1390.84,557.79,1387.27,547.69Z"/><path class="cls-6" d="M1293.58,587.19c-4.61,1.54-20.86,6.88-25.45,8.51-2.29.81-4.38,1.53-6.71,2.25-1.46.44-3,1-4.48,1.49-.6.21-1.44.21-1.2.92s.3.8.47,1.33c1.48,4.67,4.72,14.13,6.28,18.79.46,1.38,1.65,1.84,2.84,2.51,1.4.79,2.65,1.81,4.07,2.58a6.68,6.68,0,0,0,4.67.88c1.74-.43,3.61-1.09,5.29-1.65l21-7c1.21-.41,2.93-.86,3.51-2.14a3.65,3.65,0,0,0,.22-.66c.4-1.66.77-3.32,1.11-5a25.91,25.91,0,0,1,.75-3.56,1.57,1.57,0,0,0,0-1.09l-6.72-20.08Z"/><path class="cls-6" d="M1339,572c4.62-1.54,20.81-7,25.45-8.51,2.32-.73,4.43-1.42,6.72-2.25,1.43-.52,2.94-1,4.47-1.5.61-.2,1.28-.69,1.52,0s.24.82.42,1.34c1.63,4.62,4.73,14.14,6.29,18.8.46,1.38-.21,2.46-.76,3.71-.64,1.47-1,3-1.69,4.5a6.7,6.7,0,0,1-3.21,3.52c-1.64.71-3.53,1.3-5.22,1.86l-21,7c-1.21.4-2.85,1.07-4.09.39a3.22,3.22,0,0,1-.57-.39q-2-1.62-3.9-3.32a24.06,24.06,0,0,0-2.74-2.39,1.58,1.58,0,0,1-.69-.84l-6.72-20.09Z"/></g><g class="cls-5"><path class="cls-6" d="M285.61,578.59c4.83-2.42,34-12.17,39.12-10.64a12.9,12.9,0,0,1,8.94,12.18,4.22,4.22,0,0,1-.5,2.18c-1.5,2.43-3.4-.38-3.95-1.88-.67-1.85-1.2-3.82-2.84-5.09C318.2,569,286.44,594,279.12,594.62a9.14,9.14,0,0,1-3.84-.72c-2-.7-4.24-1-6.08-2.11a2.48,2.48,0,0,1-1.35-2.79,3.23,3.23,0,0,1,1.16-1.28C274.08,583.83,279.87,581.46,285.61,578.59Z"/><path class="cls-6" d="M375.29,561.69c-5.39-.49-36.09,1-40.31,4.33a12.9,12.9,0,0,0-3.9,14.59,4.28,4.28,0,0,0,1.26,1.85c2.28,1.72,3-1.58,3-3.18,0-2-.26-4,.79-5.78,5.31-8.91,44,2.8,51.05.77a9.2,9.2,0,0,0,3.31-2.07c1.59-1.38,3.57-2.5,4.89-4.17a2.48,2.48,0,0,0,.25-3.09,3.32,3.32,0,0,0-1.54-.78C387.94,562.38,381.68,562.28,375.29,561.69Z"/><path class="cls-6" d="M398,568.23c-.2-1-.17-1.18-.44-2.6s-1.64-.62-2.81-.4c-3,.56-5.9,1-8.7,1.64-4.45,1-8.55,1.69-13,2.45-9,1.53-18,3.39-27,5.08-4.6.87-9.28,1.73-13.91,2.6s-9.31,1.78-13.91,2.64c-9,1.69-18,3.23-27,5.08-4.47.93-8.54,1.73-13.05,2.46-2.82.45-5.72,1.08-8.69,1.64-1.18.22-2.73,0-2.47,1.39s.35,1.57.53,2.58c1.55,9.06,3.52,18.77,5.23,27.82.5,2.68,2.59,3.84,4.64,5.39,2.4,1.81,4.46,4,6.88,5.82s5.41,3.15,8.47,2.83c3.33-.35,7-1.1,10.24-1.72,6.27-1.2,12-2.26,18.26-3.44,2.35-.45,5.65-.86,7.06-3.09a7,7,0,0,0,.58-1.16q1.75-4.47,3.34-9c.85-2.42,1.4-5.22,2.87-7.36a4.19,4.19,0,0,1,1.84-1.26,2.43,2.43,0,0,1,.87-.16,2.54,2.54,0,0,1,.87-.17,4.1,4.1,0,0,1,2.17.51c2.15,1.46,3.68,3.86,5.36,5.81q3.12,3.63,6.38,7.16a7,7,0,0,0,1,.88c2.13,1.56,5.35.74,7.7.3,6.27-1.17,12-2.27,18.26-3.44,3.28-.61,6.94-1.23,10.17-2.12,3-.82,5.25-3.19,6.85-5.72s2.73-5.36,4.3-7.92c1.35-2.19,2.87-4,2.36-6.71C401.52,587,399.82,577.23,398,568.23Z"/><path class="cls-6" d="M313.73,590.85c-4.11.77-18.54,3.41-22.63,4.26-2,.43-3.91.79-6,1.13-1.29.21-2.62.49-4,.75-.54.1-1.25,0-1.13.64s.16.71.24,1.18c.71,4.14,2.36,12.57,3.15,16.71.23,1.23,1.18,1.75,2.12,2.46,1.1.83,2,1.85,3.15,2.67a5.7,5.7,0,0,0,3.87,1.29c1.53-.16,3.19-.5,4.69-.79l18.65-3.51c1.07-.2,2.58-.39,3.23-1.41a2.91,2.91,0,0,0,.26-.53c.54-1.37,1.05-2.74,1.53-4.12a21.08,21.08,0,0,1,1.06-2.94,1.4,1.4,0,0,0,.16-.92l-3.36-17.86Z"/><path class="cls-6" d="M354.11,583.24c4.11-.77,18.51-3.56,22.63-4.26,2.06-.35,3.93-.69,6-1.12,1.28-.28,2.62-.5,4-.75.54-.1,1.17-.45,1.28.18s.11.73.21,1.19c.84,4.12,2.37,12.57,3.15,16.71.23,1.23-.46,2.07-1.08,3.07-.72,1.17-1.23,2.46-2,3.63a5.74,5.74,0,0,1-3.13,2.61c-1.48.41-3.16.69-4.66,1L361.85,609c-1.08.21-2.55.58-3.53-.14a3,3,0,0,1-.44-.39q-1.49-1.62-2.92-3.28a20.89,20.89,0,0,0-2-2.36,1.38,1.38,0,0,1-.49-.79l-3.36-17.86Z"/></g><g class="cls-5"><path class="cls-20" d="M206.64-30.06c1.13-1.29.71-3.52.62-5.07-.2-3.38-.41-7.12-2.75-9.81a6.76,6.76,0,0,0-8.89-1.13c-1.22.83-4.06,3.85-4,5.3-1.87-.68-3.6-1.54-5.66-1.36-4.4.41-5,4.82-6.23,8.12a9.78,9.78,0,0,0-10.72,4c-3.23,4.93-2,11.24.43,16.22C171.66-9.19,175-5,179.4-2.64a10.09,10.09,0,0,0,5.28,1.37c2.28-.14,4.32-1.39,6.52-2,5.3-1.5,10.85.7,16,2.55,8.49,3,18.74,2.5,21.67-7.46l.18-.63c.91-3.58.3-8.74-3.13-10.83-3.06-1.86-5.93-1-8.55,1-.41-2.52.53-5.05-.25-7.65a7.07,7.07,0,0,0-5.73-4.92,6.5,6.5,0,0,0-3.94.95c-1.9.93-4.26-.53-6-1.19-4.54-1.73-6.7.91-8.73,4.59"/><path class="cls-6" d="M179.06-23.91q10,2.57,19.81,5.69t19.46,6.81c5.74,2.2,14.56,3,10.6,10.39-10.15,19-18.72,39-27.85,58.57-2.54,5.43-6.23,7.32-12,5.46l-14.59-4.73-14.64-4.57c-5.75-1.8-7.68-5.47-6.61-11.37,3.86-21.24,8.43-42.53,11.13-63.9C165.46-29.9,173.11-25.43,179.06-23.91Z"/><g class="cls-21"><path class="cls-6" d="M205.41-23.11c.11.07-7.1,23.53-7.8,25.8C196,8,177.25,68,177.05,67.93L169.7,66a1.79,1.79,0,0,1-1.21-.71,2.39,2.39,0,0,1,0-1.78c8.63-30.86,18-60.37,28.08-92Z"/><path class="cls-6" d="M182.49-30.65c.12.06-4.9,24.08-5.39,26.41C176,1.21,162.86,62.65,162.66,62.62l-7.5-1.22a1.81,1.81,0,0,1-1.27-.59,2.47,2.47,0,0,1-.12-1.79c5.74-31.52,12.36-61.77,19.46-94.2Z"/><path class="cls-6" d="M218.62-19.15c-.13,0-9.92,22.48-10.86,24.67-2.22,5.11-27,62.82-26.86,62.9l6.82,3.34a1.79,1.79,0,0,0,1.38.25c.55-.19.87-.82,1.13-1.38,13.53-29,25.62-57.56,38.56-88.12Z"/></g><path class="cls-22" d="M179.06-23.91q10,2.57,19.81,5.69t19.46,6.81c5.74,2.2,14.56,3,10.6,10.39-10.15,19-18.72,39-27.85,58.57-2.54,5.43-6.23,7.32-12,5.46l-14.59-4.73-14.64-4.57c-5.75-1.8-7.68-5.47-6.61-11.37,3.86-21.24,8.43-42.53,11.13-63.9C165.46-29.9,173.11-25.43,179.06-23.91Z"/></g><g class="cls-5"><path class="cls-20" d="M560.68,725.94c-1.25-2-.2-4.86.25-6.91,1-4.47,2.07-9.44,5.77-12.52a9.14,9.14,0,0,1,12.13.39c1.44,1.36,4.6,6,4.15,7.92,2.64-.5,5.14-1.29,7.85-.6,5.79,1.48,5.64,7.5,6.59,12.18a13.26,13.26,0,0,1,13.47,7.7c3.26,7.28.21,15.44-4,21.59-3.89,5.61-9.17,10.49-15.63,12.71a13.57,13.57,0,0,1-7.34.71c-3-.68-5.48-2.78-8.29-4.08-6.76-3.14-14.65-1.39-22,0-12,2.23-25.58-.66-27.38-14.6,0-.29-.07-.58-.09-.88-.45-5,1.46-11.75,6.5-13.81,4.47-1.83,8.12-.06,11.2,3.17,1.08-3.27.38-6.85,2-10.16a9.59,9.59,0,0,1,8.71-5.36c2.09.08,3.43,1,5.07,2.12,2.33,1.64,5.8.2,8.26-.32,6.45-1.34,8.77,2.65,10.7,8"/><path class="cls-6" d="M596.23,740.05q-13.89,1.29-27.7,3.37t-27.47,5c-8.13,1.71-20.09.85-16.38,11.61,9.51,27.56,16.69,56.15,24.71,84.23,2.23,7.81,6.77,11.13,14.82,9.86l20.51-3.21,20.55-3c8.07-1.17,11.42-5.67,11.25-13.79-.61-29.2-2.18-58.64-1.22-87.78C615.68,735,604.51,739.29,596.23,740.05Z"/><g class="cls-23"><path class="cls-6" d="M560.83,735.49c-.16.07,4.47,33,4.92,36.15,1.07,7.47,13.26,91.61,13.54,91.58l10.23-1a2.43,2.43,0,0,0,1.77-.68,3.34,3.34,0,0,0,.33-2.4c-5-43.09-11.18-84.53-17.88-129Z"/><path class="cls-6" d="M593.08,730.31c-.17.05,1.4,33.23,1.56,36.45.38,7.53,4.74,92.45,5,92.44l10.27,0a2.41,2.41,0,0,0,1.83-.52,3.25,3.25,0,0,0,.55-2.35c-.95-43.37-3.33-85.21-5.89-130.06Z"/><path class="cls-6" d="M542.33,738c.18,0,8.46,32.17,9.25,35.29,1.87,7.31,22.72,89.74,22.45,89.81l-9.82,3a2.41,2.41,0,0,1-1.9,0,3.24,3.24,0,0,1-1.22-2.08c-11.87-41.72-21.93-82.4-32.71-126Z"/></g><path class="cls-8" d="M596.23,740.05q-13.89,1.29-27.7,3.37t-27.47,5c-8.13,1.71-20.09.85-16.38,11.61,9.51,27.56,16.69,56.15,24.71,84.23,2.23,7.81,6.77,11.13,14.82,9.86l20.51-3.21,20.55-3c8.07-1.17,11.42-5.67,11.25-13.79-.61-29.2-2.18-58.64-1.22-87.78C615.68,735,604.51,739.29,596.23,740.05Z"/></g><g class="cls-5"><path class="cls-20" d="M57.94,518.39c.82-1.74,3.29-2.29,4.93-2.88,3.55-1.29,7.49-2.73,11.27-1.51a7.55,7.55,0,0,1,5.1,8.62c-.32,1.61-2.16,5.87-3.7,6.4,1.53,1.62,3.18,3,3.9,5.2,1.53,4.7-2.73,7.25-5.58,10A10.92,10.92,0,0,1,74.45,557c-3.63,5.49-10.67,7-16.84,6.72C52,563.5,46.25,562,41.85,558.45a11.28,11.28,0,0,1-3.75-4.8c-.86-2.4-.48-5-.82-7.58-.8-6.1-5.51-10.83-9.7-15.34-6.87-7.37-10.85-18.12-1.93-25.53l.57-.46c3.27-2.51,8.84-4.17,12.5-1.57,3.25,2.31,3.63,5.63,2.74,9.21,2.76-.69,4.95-2.77,8-3.12A7.89,7.89,0,0,1,57,513a7.23,7.23,0,0,1,.77,4.47c-.11,2.35,2.43,4.13,3.87,5.62,3.79,3.9,2,7.28-.85,11"/><path class="cls-6" d="M63.82,549.41q-7-9.12-14.6-17.82t-15.59-17c-4.79-4.91-9.48-13.62-15.34-6.28-15,18.81-31.76,36.46-47.79,54.46-4.46,5-4.76,9.64-.32,14.69l11.31,12.88,11.16,13c4.38,5.1,9,5.45,14.59,1.74,20.08-13.33,39.9-27.44,60.64-39.65C76,560.71,68,554.84,63.82,549.41Z"/><g class="cls-24"><path class="cls-6" d="M51.35,522.72c-.12-.09-21,17.68-23,19.41-4.74,4-58,49.75-57.86,49.93l5.21,6.69a2,2,0,0,0,1.26.94,2.75,2.75,0,0,0,1.81-.83c27.85-22.5,54-45.17,82-69.48Z"/><path class="cls-6" d="M69.22,542.91c-.11-.1-22.55,15.67-24.72,17.2-5.09,3.59-62.35,44.18-62.22,44.37l4.57,7.15a2,2,0,0,0,1.16,1A2.74,2.74,0,0,0-10.1,612C19.71,592.18,47.82,572,78,550.41Z"/><path class="cls-6" d="M41.45,510.92C41.53,511,22.76,531,20.94,533c-4.27,4.53-52.51,55.51-52.68,55.36l-6.44-5.53a2,2,0,0,1-.86-1.3,2.64,2.64,0,0,1,.91-1.77C-14.3,553,9.61,528,35.25,501.21Z"/></g><path class="cls-8" d="M63.82,549.41q-7-9.12-14.6-17.82t-15.59-17c-4.79-4.91-9.48-13.62-15.34-6.28-15,18.81-31.76,36.46-47.79,54.46-4.46,5-4.76,9.64-.32,14.69l11.31,12.88,11.16,13c4.38,5.1,9,5.45,14.59,1.74,20.08-13.33,39.9-27.44,60.64-39.65C76,560.71,68,554.84,63.82,549.41Z"/></g><g class="cls-5"><path class="cls-6" d="M153,743.41a3.92,3.92,0,0,0,1.55,2.64c1.18,1.1,4.83,5.83,6.36,5.92,1.8.1,5.12-4.47,6.42-5.77,11.74-11.71,23.22-23.66,34.66-35.66q8.73-9.13,17.44-18.28c2.68-2.8,6.76-5.81,8.75-9.11,1.49-2.48,1.26-1.42-.62-3.73a48.37,48.37,0,0,0-3.73-3.71c-2.48-2.46-2.94-2.08-5.39.16-2.7,2.47-5.19,5.23-7.77,7.83l-16.1,16.23c-13.36,13.75-28,26.63-40.47,41.16A3.66,3.66,0,0,0,153,743.41Z"/><g class="cls-25"><path class="cls-8" d="M239.21,686.33c-5.84-7.88-11.75-15.9-15.22-25.07"/><path class="cls-8" d="M230.62,695.18c-5.84-7.89-11.76-15.9-15.22-25.08"/><path class="cls-8" d="M222,704c-5.84-7.88-11.75-15.9-15.21-25.07"/><path class="cls-8" d="M213.43,712.87c-5.84-7.89-11.75-15.9-15.22-25.08"/><path class="cls-8" d="M204.83,721.71c-5.83-7.88-11.75-15.89-15.21-25.07"/><path class="cls-8" d="M196.24,730.56c-5.84-7.89-11.75-15.9-15.21-25.08"/><path class="cls-8" d="M187.65,739.4c-5.84-7.88-11.75-15.89-15.22-25.07"/><path class="cls-8" d="M179.05,748.25c-5.84-7.89-11.75-15.9-15.21-25.08"/><path class="cls-8" d="M170.46,757.09c-5.84-7.88-11.75-15.89-15.21-25.07"/></g><path class="cls-6" d="M160,748.62a2.32,2.32,0,0,0-.33.67c-.53,1.69.75,3.59,1.86,5.82,1.62,3.23,3.54,6.85,4.49,9q4.5,10,9.1,20c5.48,11.88,10.95,23.8,16.8,35.52,2.54,5.08,6.57,1.18,10.84-.72q7.91-3.52,15.78-7.08,17.93-8.1,35.8-16.31c9.25-4.24,18.82-7.83,28-12.07,3.81-1.75,3.59-5.11,2-8.45q-9.09-18.81-18-37.69-4.41-9.26-8.83-18.5c-2.14-4.47-3.83-12.71-10.2-11.91a17.58,17.58,0,0,0-5.54,2.05c-23.85,12.08-48,23.3-72.24,34.64C167.22,744.69,161.58,746.22,160,748.62Z"/><path class="cls-6" d="M175.79,761.36q7.91-3.51,15.79-7.08,17.92-8.1,35.8-16.3c9.25-4.24,18.81-7.84,28-12.08a4.63,4.63,0,0,0,3-5.06l-1-2c-2.14-4.47-3.83-12.71-10.2-11.91a17.58,17.58,0,0,0-5.54,2.05c-23.85,12.08-48,23.3-72.24,34.64-2.29,1.09-7.93,2.62-9.51,5a2.4,2.4,0,0,0-.33.66,4.49,4.49,0,0,0-.16,1.61c1.79,3.75,3.59,7.48,5.44,11.19C167.5,767.17,171.52,763.26,175.79,761.36Z"/><g class="cls-26"><path class="cls-8" d="M160.68,741c2.31,9.54,4.63,19.22,4.25,29"/><path class="cls-8" d="M172,736.18c2.31,9.54,4.63,19.22,4.25,29"/><path class="cls-8" d="M183.4,731.38c2.31,9.54,4.63,19.22,4.25,29"/><path class="cls-8" d="M194.76,726.58c2.31,9.53,4.63,19.22,4.25,29"/><path class="cls-8" d="M206.12,721.78c2.31,9.53,4.63,19.22,4.25,29"/><path class="cls-8" d="M217.48,717c2.31,9.53,4.63,19.22,4.25,29"/><path class="cls-8" d="M228.84,712.18c2.31,9.53,4.63,19.21,4.25,29"/><path class="cls-8" d="M240.2,707.38c2.31,9.53,4.63,19.21,4.25,29"/><path class="cls-8" d="M251.56,702.57c2.31,9.54,4.63,19.22,4.25,29"/></g><g class="cls-27"><path class="cls-8" d="M176.74,810.25c36.68-16.69,71.64-37.47,109.59-51.28"/><line class="cls-8" x1="231.1" y1="785.05" x2="244.13" y2="812.85"/><line class="cls-8" x1="259.6" y1="770.12" x2="272.93" y2="798.57"/></g><text class="cls-28" transform="translate(203.79 789.44) rotate(-25.1)">M<tspan class="cls-29" x="14.75" y="0">O</tspan><tspan x="25.67" y="0">VIE</tspan></text></g><g class="cls-5"><path class="cls-6" d="M1326.24,408.63c-.18,1,.26,2.05,1.21,3.36,1.11,1.51,4.28,7.73,6,8.16,2,.51,6.84-4,8.61-5.24,16-10.9,31.74-22.15,47.45-33.45q12-8.61,23.93-17.23c3.68-2.63,9-5.2,12-8.57,2.24-2.52,1.76-1.35.1-4.41a59.72,59.72,0,0,0-3.48-5.06c-2.32-3.35-2.93-3-6.22-1-3.64,2.25-7.08,4.88-10.6,7.31l-22,15.15c-18.29,12.91-37.81,24.54-55.29,38.52A4.23,4.23,0,0,0,1326.24,408.63Z"/><g class="cls-30"><path class="cls-8" d="M1437.44,361.69c-5-10.3-10.07-20.77-12.06-32.05"/><path class="cls-8" d="M1425.67,370c-5-10.3-10.06-20.77-12.06-32.05"/><path class="cls-8" d="M1413.91,378.29c-5-10.3-10.06-20.77-12.06-32.05"/><path class="cls-8" d="M1402.15,386.59c-5-10.3-10.07-20.77-12.07-32"/><path class="cls-8" d="M1390.38,394.89c-5-10.3-10.06-20.77-12.06-32.05"/><path class="cls-8" d="M1378.62,403.19c-5-10.3-10.06-20.77-12.06-32.05"/><path class="cls-8" d="M1366.85,411.49c-5-10.31-10.06-20.77-12.06-32.05"/><path class="cls-8" d="M1355.09,419.79c-5-10.31-10.06-20.77-12.06-32.05"/><path class="cls-8" d="M1343.33,428.08c-5-10.3-10.07-20.76-12.06-32"/></g><path class="cls-6" d="M1333.14,416.11a3.23,3.23,0,0,0-.51.69c-1,1.83.08,4.29.88,7.08,1.16,4.06,2.58,8.63,3.22,11.28q3,12.48,6.13,24.94c3.73,14.81,7.43,29.67,11.63,44.37,1.82,6.38,7.28,2.77,12.59,1.5q9.83-2.33,19.64-4.72,22.3-5.43,44.58-11c11.52-2.87,23.28-4.94,34.77-7.81,4.76-1.19,5.22-5.09,4.09-9.28-4.26-15.69-8.42-31.41-12.59-47.12q-3.08-11.56-6.15-23.13c-1.49-5.58-1.66-15.4-9.14-15.85a20.35,20.35,0,0,0-6.79,1.15c-30,8.72-60.14,16.4-90.35,24.2C1342.27,413.16,1335.48,413.7,1333.14,416.11Z"/><path class="cls-6" d="M1348.53,434.13q9.83-2.33,19.63-4.72,22.3-5.45,44.59-11c11.52-2.87,23.27-4.94,34.77-7.82,3.12-.78,4.39-2.73,4.57-5.16-.22-.84-.45-1.68-.67-2.52-1.49-5.58-1.66-15.4-9.14-15.85a20.35,20.35,0,0,0-6.79,1.15c-30,8.72-60.14,16.4-90.35,24.2-2.87.76-9.66,1.3-12,3.71a3.23,3.23,0,0,0-.51.69,5.09,5.09,0,0,0-.54,1.81c1.25,4.68,2.52,9.36,3.85,14C1337.76,439,1343.22,435.39,1348.53,434.13Z"/><g class="cls-31"><path class="cls-8" d="M1335.57,407.5c.6,11.43,1.18,23-1.37,34.21"/><path class="cls-8" d="M1349.64,404.43c.6,11.44,1.18,23.05-1.37,34.21"/><path class="cls-8" d="M1363.71,401.37c.59,11.44,1.18,23.05-1.37,34.21"/><path class="cls-8" d="M1377.77,398.3c.6,11.44,1.18,23.05-1.37,34.22"/><path class="cls-8" d="M1391.84,395.24c.6,11.44,1.18,23.05-1.37,34.21"/><path class="cls-8" d="M1405.91,392.18c.59,11.43,1.18,23-1.37,34.21"/><path class="cls-8" d="M1420,389.11c.6,11.44,1.19,23.05-1.36,34.21"/><path class="cls-8" d="M1434,386.05c.6,11.43,1.18,23-1.37,34.21"/></g><g class="cls-32"><path class="cls-8" d="M1339.09,490.43c45.68-11.25,90.26-27.57,136.78-35.26"/><line class="cls-8" x1="1373.8" y1="481.76" x2="1382.76" y2="516.47"/><line class="cls-8" x1="1406.89" y1="473.21" x2="1415.85" y2="507.92"/></g><text class="cls-33" transform="translate(1374.67 472.46) rotate(-14.48)">M<tspan class="cls-34" x="17.22" y="0">O</tspan><tspan x="29.97" y="0">VIE</tspan></text></g><g class="cls-5"><path class="cls-6" d="M1346,223.69a2.69,2.69,0,0,0,.58,2c.59.93,2.2,4.67,3.19,5,1.18.38,4.15-2.08,5.23-2.72,9.76-5.73,19.38-11.68,29-17.66q7.31-4.56,14.63-9.12c2.25-1.4,5.46-2.69,7.34-4.53,1.4-1.39,1.07-.72.22-2.58a32,32,0,0,0-1.83-3.08c-1.22-2.05-1.59-1.87-3.59-.81-2.21,1.17-4.32,2.57-6.47,3.85l-13.41,8c-11.17,6.81-23,12.84-33.75,20.31A2.5,2.5,0,0,0,1346,223.69Z"/><g class="cls-35"><path class="cls-8" d="M1412.75,200.64c-2.52-6.21-5.06-12.51-5.79-19.17"/><path class="cls-8" d="M1405.56,205c-2.52-6.2-5.06-12.51-5.79-19.16"/><path class="cls-8" d="M1398.37,209.41c-2.51-6.21-5.06-12.51-5.78-19.17"/><path class="cls-8" d="M1391.19,213.79c-2.52-6.21-5.06-12.51-5.79-19.17"/><path class="cls-8" d="M1384,218.17c-2.52-6.2-5.06-12.51-5.79-19.16"/><path class="cls-8" d="M1376.81,222.56c-2.51-6.21-5.06-12.51-5.78-19.17"/><path class="cls-8" d="M1369.63,226.94c-2.52-6.2-5.06-12.51-5.79-19.16"/><path class="cls-8" d="M1362.44,231.32c-2.52-6.2-5.06-12.5-5.79-19.16"/><path class="cls-8" d="M1355.26,235.71c-2.52-6.21-5.07-12.51-5.79-19.17"/></g><path class="cls-6" d="M1349.78,228.32a2,2,0,0,0-.33.39c-.63,1-.11,2.5.24,4.16.52,2.42,1.17,5.14,1.44,6.71q1.26,7.39,2.61,14.79c1.6,8.78,3.18,17.59,5,26.33.82,3.8,4.14,1.9,7.29,1.37q5.82-1,11.64-2,13.23-2.29,26.44-4.68c6.83-1.23,13.77-2,20.59-3.21,2.82-.51,3.24-2.76,2.74-5.25q-2.81-14-5.51-28-1.34-6.87-2.68-13.74c-.65-3.31-.37-9.05-4.71-9.6a11.87,11.87,0,0,0-4,.41c-17.83,3.92-35.73,7.22-53.66,10.6C1355.22,227,1351.24,227,1349.78,228.32Z"/><path class="cls-6" d="M1358.05,239.44q5.84-1,11.64-2,13.23-2.31,26.44-4.69c6.84-1.22,13.77-2,20.6-3.2a3.16,3.16,0,0,0,2.86-2.84c-.1-.5-.19-1-.29-1.5-.65-3.31-.37-9.05-4.71-9.6a11.87,11.87,0,0,0-4,.41c-17.83,3.92-35.73,7.22-53.66,10.6-1.7.33-5.68.38-7.14,1.69a2,2,0,0,0-.33.39,3.09,3.09,0,0,0-.38,1c.55,2.78,1.1,5.56,1.7,8.33C1351.58,241.86,1354.91,240,1358.05,239.44Z"/><g class="cls-36"><path class="cls-8" d="M1351.53,223.4c-.09,6.69-.2,13.49-2.13,19.9"/><path class="cls-8" d="M1359.86,222.16c-.1,6.69-.21,13.49-2.13,19.9"/><path class="cls-8" d="M1368.19,220.92c-.1,6.69-.21,13.49-2.13,19.9"/><path class="cls-8" d="M1376.51,219.68c-.09,6.69-.21,13.49-2.13,19.9"/><path class="cls-8" d="M1384.84,218.44c-.1,6.69-.21,13.49-2.13,19.9"/><path class="cls-8" d="M1393.16,217.2c-.09,6.69-.2,13.49-2.13,19.9"/><path class="cls-8" d="M1401.49,216c-.1,6.69-.21,13.49-2.13,19.9"/><path class="cls-8" d="M1409.82,214.72c-.1,6.69-.21,13.49-2.13,19.9"/><path class="cls-8" d="M1418.14,213.48c-.09,6.69-.21,13.49-2.13,19.9"/></g><g class="cls-37"><path class="cls-8" d="M1350.36,271.91c27.09-4.78,53.73-12.57,81.17-15.24"/><line class="cls-8" x1="1370.94" y1="268.21" x2="1374.82" y2="288.81"/><line class="cls-8" x1="1390.58" y1="264.51" x2="1394.46" y2="285.11"/><line class="cls-8" x1="1411.96" y1="259.5" x2="1415.92" y2="280.57"/></g><text class="cls-38" transform="translate(1371.77 262.78) rotate(-10.66)">M<tspan class="cls-39" x="10.07" y="0">O</tspan><tspan class="cls-40" x="17.52" y="0">VIE</tspan></text></g><g class="cls-5"><path class="cls-6" d="M1298,708.34a1.52,1.52,0,0,0-2.14-1.48c-56.13,8.32-57.9,8.4-114.06,16.51h-.12c-56.17,8.15-112.31,16.46-168.5,24.39a2.05,2.05,0,0,0-1.42.6,2.08,2.08,0,0,0-.22,1.42c.26,2.82-.3,13.77,3.11,15.39a5.81,5.81,0,0,0,3.6.17c9.5-1.62,11.08-3.58,12.73,6.35,1.28,7.67,2.45,15.36,3.67,23,2.36,14.8,4.93,29.58,7.08,44.42,1.46,9.16-3.6,9.53-10.52,10.06a2.94,2.94,0,0,0-2.72,2.83c-.17,4.55,0,10.08,2.14,13.71,2.66,4.59,4.34,3.1,10.39,2.22l18.08-2.59L1131.41,855l67.93-9.72h.12c22.64-3.31-7.18,1,15.45-2.34l72.26-10.57c6-.88,10.07-1.49,16.09-2.36s8.09.08,9.33-5.07c1-4.08-.38-9.44-1.83-13.76a2.94,2.94,0,0,0-3.4-1.94c-6.8,1.46-11.75,2.53-12.95-6.67-2.15-14.83-3.87-29.74-5.8-44.6-1-7.71-2.07-15.42-3-23.13-1.23-10,.83-8.57,10.4-9.7a5.82,5.82,0,0,0,3.4-1.18C1302.22,721.45,1298.58,711.11,1298,708.34Z"/><path class="cls-6" d="M1155.85,825.81a2.79,2.79,0,0,0,.47-.51c.93-1.38.3-3.42-.09-5.72-.57-3.34-1.3-7.1-1.58-9.27q-1.29-10.2-2.71-20.41c-1.68-12.13-3.34-24.29-5.4-36.37-.89-5.25-5.56-2.84-9.9-2.3q-8,1-16.06,2c-21.18,2.77-42.07,7.26-63.29,9.7-4.41.51-6.07,2.95-5.4,7.17,2,12.88,3.71,24,5.67,36.9q1.43,9.48,2.88,19c.7,4.58,0,12.42,5.9,13.43a16.27,16.27,0,0,0,5.51-.33c24.65-4.34,49.36-7.82,74.12-11.41C1148.31,827.36,1153.78,827.52,1155.85,825.81Z"/><path class="cls-6" d="M1030.46,758.23l.06-.05c.11-.15,0-.37,0-.61s-.14-.75-.17-1c-.09-.72-.18-1.44-.28-2.16-.18-1.29-.35-2.58-.57-3.85-.1-.56-.64-.3-1.13-.24l-1.85.24c-2.42.32-4.82.82-7.25,1.11-.51.06-.7.32-.63.77l.6,3.9c.1.67.21,1.34.31,2,.07.49,0,1.32.66,1.42a2.23,2.23,0,0,0,.63,0c2.83-.49,5.66-.89,8.5-1.3A3.34,3.34,0,0,0,1030.46,758.23Z"/><path class="cls-6" d="M1049.27,755.51l0-.06c.11-.14,0-.36,0-.6s-.14-.75-.17-1c-.09-.72-.19-1.44-.29-2.16-.17-1.29-.35-2.58-.57-3.86-.09-.55-.63-.29-1.13-.23l-1.84.24c-2.43.32-4.83.82-7.26,1.11-.51.06-.7.32-.63.77.22,1.36.4,2.54.61,3.9l.3,2c.08.49,0,1.32.66,1.42a2.23,2.23,0,0,0,.63,0c2.83-.49,5.66-.9,8.5-1.31A3.16,3.16,0,0,0,1049.27,755.51Z"/><path class="cls-6" d="M1068.07,752.79l.06-.06c.1-.14,0-.36,0-.6s-.14-.75-.17-1c-.09-.72-.18-1.45-.28-2.17-.18-1.28-.35-2.57-.57-3.85-.1-.55-.64-.29-1.14-.23l-1.84.24c-2.43.32-4.82.82-7.26,1.11-.5.06-.69.32-.62.76l.6,3.91c.1.67.2,1.34.31,2,.07.48,0,1.32.66,1.42a1.94,1.94,0,0,0,.63-.05c2.82-.49,5.66-.89,8.5-1.3A3.1,3.1,0,0,0,1068.07,752.79Z"/><path class="cls-6" d="M1086.87,750.07l.06-.06c.11-.14,0-.36,0-.6s-.14-.76-.17-1c-.09-.72-.19-1.44-.29-2.16-.18-1.28-.35-2.57-.57-3.85-.1-.55-.63-.29-1.13-.23l-1.84.24c-2.43.32-4.83.82-7.26,1.11-.51.05-.7.32-.63.76.22,1.37.4,2.55.6,3.91.11.67.21,1.34.31,2,.08.48,0,1.32.66,1.42a1.92,1.92,0,0,0,.63,0c2.83-.49,5.66-.89,8.5-1.3A3.06,3.06,0,0,0,1086.87,750.07Z"/><path class="cls-6" d="M1105.68,747.35l0-.06c.11-.15,0-.36,0-.61s-.14-.75-.17-1c-.09-.72-.18-1.44-.28-2.16-.18-1.28-.36-2.57-.58-3.85-.09-.55-.63-.29-1.13-.23l-1.84.24c-2.43.32-4.82.82-7.26,1.1-.5.06-.7.32-.62.77l.6,3.91.3,2c.08.48,0,1.31.66,1.41a2,2,0,0,0,.64,0c2.82-.49,5.66-.89,8.49-1.3A3.16,3.16,0,0,0,1105.68,747.35Z"/><path class="cls-6" d="M1124.48,744.62l.06,0c.11-.15,0-.36,0-.61s-.14-.75-.16-1c-.1-.72-.19-1.44-.29-2.16-.18-1.28-.35-2.57-.57-3.85-.1-.56-.64-.3-1.13-.23s-1.23.15-1.84.24c-2.43.32-4.83.82-7.26,1.1-.51.06-.7.32-.63.77.21,1.36.4,2.54.6,3.91.1.67.21,1.34.31,2,.07.48,0,1.31.66,1.41a1.91,1.91,0,0,0,.63,0c2.83-.49,5.66-.89,8.5-1.3A2.92,2.92,0,0,0,1124.48,744.62Z"/><path class="cls-6" d="M1143.29,741.9l0,0c.11-.15,0-.36,0-.61s-.14-.75-.17-1c-.09-.72-.19-1.44-.29-2.16-.17-1.29-.35-2.57-.57-3.85-.09-.56-.63-.3-1.13-.23l-1.84.23c-2.43.32-4.83.83-7.26,1.11-.5.06-.7.32-.63.77.22,1.36.4,2.54.61,3.91l.3,2c.08.49,0,1.32.66,1.42a1.91,1.91,0,0,0,.63,0c2.83-.49,5.66-.89,8.5-1.3A3,3,0,0,0,1143.29,741.9Z"/><path class="cls-6" d="M1162.09,739.18l.06,0c.1-.15,0-.37,0-.61s-.14-.75-.17-1c-.09-.72-.18-1.44-.28-2.16-.18-1.29-.35-2.57-.57-3.85-.1-.56-.64-.3-1.14-.23l-1.84.23c-2.42.32-4.82.83-7.25,1.11-.51.06-.7.32-.63.77l.6,3.9c.1.67.2,1.34.31,2,.07.49,0,1.32.66,1.42a2.25,2.25,0,0,0,.63,0c2.82-.49,5.66-.89,8.5-1.3A2.92,2.92,0,0,0,1162.09,739.18Z"/><path class="cls-6" d="M1180.9,736.46l0-.05c.11-.15,0-.37,0-.61s-.14-.75-.17-1c-.09-.72-.19-1.44-.29-2.16-.17-1.29-.35-2.58-.57-3.85-.1-.56-.63-.3-1.13-.24l-1.84.24c-2.43.32-4.83.82-7.26,1.11-.51.06-.7.32-.63.77.22,1.36.4,2.54.6,3.9.11.67.21,1.34.31,2,.08.49,0,1.32.66,1.42a2.23,2.23,0,0,0,.63,0c2.83-.49,5.66-.89,8.5-1.3A3.4,3.4,0,0,0,1180.9,736.46Z"/><path class="cls-6" d="M1199.7,733.74l0-.06c.11-.14,0-.36,0-.6s-.14-.75-.17-1c-.09-.72-.18-1.44-.28-2.16-.18-1.29-.36-2.58-.58-3.86-.09-.55-.63-.29-1.13-.23l-1.84.24c-2.43.32-4.82.82-7.26,1.11-.5.06-.69.32-.62.77l.6,3.9c.1.67.2,1.34.31,2,.07.49,0,1.32.65,1.42a2.3,2.3,0,0,0,.64,0c2.82-.49,5.66-.9,8.5-1.31A3.14,3.14,0,0,0,1199.7,733.74Z"/><path class="cls-6" d="M1218.5,731l.06-.06c.11-.14,0-.36,0-.6s-.15-.75-.17-1c-.1-.72-.19-1.45-.29-2.17-.18-1.28-.35-2.57-.57-3.85-.1-.55-.64-.29-1.13-.23l-1.84.24c-2.43.32-4.83.82-7.26,1.11-.51.06-.7.32-.63.76.22,1.37.4,2.55.6,3.91.1.67.21,1.34.31,2,.07.48,0,1.32.66,1.42a1.92,1.92,0,0,0,.63-.05c2.83-.49,5.66-.89,8.5-1.3A3.1,3.1,0,0,0,1218.5,731Z"/><path class="cls-6" d="M1237.31,728.3l0-.06c.11-.14,0-.36,0-.6s-.14-.76-.17-1c-.09-.72-.19-1.44-.29-2.16-.17-1.28-.35-2.57-.57-3.85-.09-.55-.63-.29-1.13-.23l-1.84.24c-2.43.32-4.83.82-7.26,1.11-.5,0-.7.32-.63.76.22,1.37.4,2.55.61,3.91l.3,2c.08.48,0,1.32.66,1.42a1.92,1.92,0,0,0,.63-.05c2.83-.49,5.66-.89,8.5-1.3A3.16,3.16,0,0,0,1237.31,728.3Z"/><path class="cls-6" d="M1256.11,725.58l.06-.06c.1-.15,0-.36,0-.61s-.14-.75-.17-1c-.09-.72-.18-1.44-.28-2.16-.18-1.28-.35-2.57-.57-3.85-.1-.55-.64-.29-1.13-.23l-1.85.24c-2.42.32-4.82.82-7.25,1.1-.51.06-.7.32-.63.77l.6,3.91c.1.67.2,1.34.31,2,.07.48,0,1.31.66,1.41a1.93,1.93,0,0,0,.63,0c2.83-.49,5.66-.89,8.5-1.3A3.1,3.1,0,0,0,1256.11,725.58Z"/><path class="cls-6" d="M1274.92,722.85a.12.12,0,0,0,0-.05c.11-.15,0-.36,0-.61s-.14-.75-.17-1c-.09-.72-.19-1.44-.29-2.16-.17-1.28-.35-2.57-.57-3.85-.1-.56-.63-.3-1.13-.23s-1.23.15-1.84.24c-2.43.32-4.83.82-7.26,1.1-.51.06-.7.32-.63.77.22,1.36.4,2.54.61,3.91l.3,2c.08.48,0,1.31.66,1.41a1.91,1.91,0,0,0,.63,0c2.83-.49,5.66-.89,8.5-1.3A3,3,0,0,0,1274.92,722.85Z"/><path class="cls-6" d="M1293.72,720.13l0,0c.11-.15,0-.37,0-.61s-.14-.75-.17-1c-.09-.72-.18-1.44-.28-2.16-.18-1.29-.35-2.57-.58-3.85-.09-.56-.63-.3-1.13-.23l-1.84.23c-2.43.32-4.82.83-7.26,1.11-.5.06-.69.32-.62.77l.6,3.91c.1.67.2,1.33.31,2,.07.49,0,1.32.65,1.42a2,2,0,0,0,.64,0c2.82-.49,5.66-.89,8.5-1.3A2.92,2.92,0,0,0,1293.72,720.13Z"/><path class="cls-6" d="M1274.61,808.62a2.05,2.05,0,0,0,.47-.51c.94-1.37.31-3.42-.08-5.72-.57-3.33-1.31-7.1-1.58-9.26q-1.31-10.21-2.72-20.41c-1.68-12.14-3.33-24.3-5.39-36.38-.9-5.24-5.56-2.84-9.91-2.3q-8,1-16.06,2.05c-21.17,2.77-42.07,7.27-63.29,9.7-4.41.51-6.06,3-5.4,7.18,2,12.87,3.72,24,5.67,36.89q1.44,9.5,2.88,19c.7,4.58,0,12.42,5.9,13.43a16.34,16.34,0,0,0,5.52-.33c24.64-4.33,49.35-7.82,74.11-11.4C1267.08,810.17,1272.54,810.33,1274.61,808.62Z"/></g><g class="cls-5"><path class="cls-6" d="M106.8,432.72a1.76,1.76,0,0,0,1-.77,1.8,1.8,0,0,0-.13-1.34c-17.52-46.74-17.91-48.24-35.25-95.05h0l0-.05,0-.05h0C55,288.66,37.51,241.9,20.31,195a1.78,1.78,0,0,0-.77-1.1,1.8,1.8,0,0,0-1.27.07c-2.38.74-11.9,2.28-12.66,5.52a5,5,0,0,0,.52,3.12c3.15,7.87,5.12,8.86-3.12,12.12-6.36,2.51-12.75,4.94-19.13,7.41-12.29,4.76-24.53,9.7-36.9,14.29-7.6,2.94-8.86-1.33-10.6-7.19a2.57,2.57,0,0,0-2.92-1.82c-3.95.7-8.67,1.9-11.41,4.38-3.45,3.12-1.85,4.29,0,9.34s3.7,10,5.56,15.07q11.12,30.13,22.24,60.26l20.91,56.63h0l0,.05,0,.05h0c7,18.85-2.17-6,4.86,12.85l22.43,60.2,5,13.4c1.87,5.05,1.42,7,6.08,7.09,3.69.1,8-2.07,11.5-4.11a2.59,2.59,0,0,0,1-3.29c-2.5-5.57-4.34-9.64,3.35-12.36,12.36-4.59,24.87-8.82,37.29-13.23,6.45-2.29,12.88-4.62,19.34-6.86,8.37-2.9,7.52-.86,10.26,7.16a5.12,5.12,0,0,0,1.64,2.71C96.3,438.75,104.52,433.71,106.8,432.72Z"/><path class="cls-6" d="M-20.47,332.13a1.88,1.88,0,0,0,.52.31c1.36.55,3-.37,4.91-1.13,2.76-1.1,5.86-2.43,7.67-3.06q8.55-3,17.06-6.11C19.81,318.46,30,314.79,40,310.79c4.35-1.74,1.42-5.31.15-8.94q-2.34-6.74-4.73-13.44c-6.29-17.7-14-34.84-20-52.64-1.25-3.7-3.66-4.67-7.17-3.32-10.7,4.11-20,7.63-30.69,11.68l-15.78,6c-3.8,1.45-10.68,2.28-10.46,7.56a14.41,14.41,0,0,0,1.3,4.68c8.28,20.39,15.84,41,23.49,61.64C-23.2,325.94-22.33,330.67-20.47,332.13Z"/><path class="cls-6" d="M14.5,211.82l.06,0c.14.06.32,0,.52-.12s.62-.26.81-.32l1.81-.65c1.07-.39,2.15-.77,3.2-1.2.46-.19.14-.6,0-1s-.37-1-.55-1.54c-.72-2-1.6-4-2.29-6-.15-.43-.41-.54-.78-.4L14,201.82l-1.67.63c-.4.16-1.13.23-1.09.83a1.74,1.74,0,0,0,.15.54c.94,2.34,1.81,4.7,2.69,7.07C14.19,211.11,14.3,211.65,14.5,211.82Z"/><path class="cls-6" d="M20.31,227.49l.06,0c.15.06.32,0,.52-.12s.62-.26.81-.32l1.81-.65c1.07-.39,2.15-.77,3.21-1.2.46-.19.13-.6,0-1s-.36-1-.55-1.54c-.72-2-1.6-4-2.29-6-.14-.43-.4-.54-.78-.4l-3.24,1.24-1.68.63c-.4.16-1.13.23-1.09.83a1.74,1.74,0,0,0,.15.54c.94,2.34,1.81,4.7,2.69,7.07C20,226.78,20.11,227.32,20.31,227.49Z"/><path class="cls-6" d="M26.12,243.16l.06,0c.15.06.32,0,.52-.12s.62-.26.81-.32l1.81-.65c1.07-.39,2.15-.77,3.21-1.2.46-.19.13-.6,0-1s-.36-1-.55-1.54c-.72-2-1.59-4-2.29-6-.14-.43-.4-.54-.77-.4l-3.25,1.24-1.67.63c-.41.16-1.14.23-1.1.83a1.74,1.74,0,0,0,.15.54c.95,2.34,1.81,4.7,2.69,7.07C25.81,242.45,25.92,243,26.12,243.16Z"/><path class="cls-6" d="M31.94,258.83a.1.1,0,0,0,0,0c.15.06.32,0,.52-.12s.62-.26.82-.32l1.8-.65c1.07-.39,2.15-.77,3.21-1.2.46-.19.14-.6,0-1L37.79,254c-.73-2-1.6-4-2.3-6-.14-.43-.4-.55-.77-.4l-3.25,1.24-1.67.63c-.41.16-1.14.23-1.1.83a1.74,1.74,0,0,0,.15.54c.95,2.34,1.81,4.7,2.69,7.07C31.63,258.12,31.73,258.66,31.94,258.83Z"/><path class="cls-6" d="M37.75,274.5l0,0c.15.06.32,0,.53-.12s.62-.26.81-.32l1.8-.65c1.08-.39,2.15-.77,3.21-1.2.46-.19.14-.6,0-1l-.54-1.54c-.73-2-1.6-4-2.3-6-.14-.43-.4-.55-.77-.4l-3.25,1.24-1.67.63c-.4.16-1.14.23-1.1.83a2.07,2.07,0,0,0,.15.54c1,2.34,1.82,4.7,2.69,7.07C37.44,273.79,37.54,274.33,37.75,274.5Z"/><path class="cls-6" d="M43.56,290.17l.06,0c.14.06.32,0,.52-.12s.62-.26.81-.32l1.81-.65c1.07-.39,2.14-.77,3.2-1.2.46-.19.14-.6,0-1l-.54-1.54c-.72-2-1.6-4-2.29-6-.15-.43-.41-.55-.78-.4l-3.25,1.24-1.67.63c-.4.16-1.14.23-1.1.83a2.09,2.09,0,0,0,.16.54c.94,2.34,1.81,4.7,2.69,7.07C43.25,289.46,43.36,290,43.56,290.17Z"/><path class="cls-6" d="M49.37,305.84l.06,0c.14.06.32,0,.52-.12s.62-.26.81-.32l1.81-.65c1.07-.39,2.15-.77,3.2-1.2.46-.19.14-.6,0-1L55.22,301c-.72-2-1.6-4-2.29-6-.15-.43-.41-.55-.78-.4l-3.25,1.24-1.67.63c-.4.16-1.13.23-1.09.83a1.74,1.74,0,0,0,.15.54c.94,2.34,1.81,4.7,2.69,7.07C49.06,305.13,49.17,305.67,49.37,305.84Z"/><path class="cls-6" d="M55.18,321.51l.06,0c.15.06.32,0,.52-.12s.62-.26.81-.32l1.81-.65c1.07-.39,2.15-.77,3.21-1.2.46-.19.13-.6,0-1s-.37-1-.55-1.54c-.72-2-1.6-4-2.29-6-.14-.43-.4-.55-.78-.4l-3.24,1.24-1.68.63c-.4.16-1.13.23-1.09.83a1.74,1.74,0,0,0,.15.54c.94,2.34,1.81,4.7,2.69,7.07C54.87,320.8,55,321.34,55.18,321.51Z"/><path class="cls-6" d="M61,337.18l.06,0c.15.06.32,0,.52-.12s.62-.26.81-.32l1.81-.65c1.07-.39,2.15-.77,3.21-1.2.46-.19.13-.6,0-1s-.36-1-.55-1.54c-.72-2-1.59-4-2.29-6-.14-.43-.4-.55-.77-.4l-3.25,1.24-1.67.63c-.41.16-1.14.23-1.1.83a1.74,1.74,0,0,0,.15.54c.94,2.34,1.81,4.7,2.69,7.07C60.68,336.47,60.79,337,61,337.18Z"/><path class="cls-6" d="M66.81,352.85a.1.1,0,0,0,0,0c.15.06.32,0,.52-.12s.62-.26.82-.32l1.8-.65c1.07-.39,2.15-.78,3.21-1.2.46-.19.14-.6,0-1L72.66,348c-.73-2-1.6-4-2.3-6-.14-.43-.4-.55-.77-.4l-3.25,1.24-1.67.63c-.41.16-1.14.23-1.1.83a1.74,1.74,0,0,0,.15.54c1,2.34,1.81,4.7,2.69,7.07C66.5,352.14,66.6,352.68,66.81,352.85Z"/><path class="cls-6" d="M72.62,368.52l0,0c.15.06.32,0,.53-.12s.62-.26.81-.32l1.8-.65c1.08-.39,2.15-.78,3.21-1.2.46-.19.14-.6,0-1l-.54-1.54c-.73-2-1.6-4-2.3-6-.14-.43-.4-.55-.77-.4l-3.25,1.24-1.67.63c-.4.16-1.14.23-1.1.83a1.82,1.82,0,0,0,.15.54c1,2.34,1.82,4.7,2.69,7.07C72.31,367.81,72.41,368.35,72.62,368.52Z"/><path class="cls-6" d="M78.43,384.19l.06,0c.14.06.32,0,.52-.12s.62-.26.81-.32l1.81-.65c1.07-.39,2.14-.78,3.2-1.2.46-.19.14-.6,0-1l-.54-1.54c-.73-2-1.6-4-2.29-6-.15-.43-.41-.55-.78-.4L78,374.19l-1.67.63c-.4.16-1.14.23-1.1.83a2.21,2.21,0,0,0,.16.54c.94,2.34,1.81,4.7,2.68,7.07C78.12,383.48,78.23,384,78.43,384.19Z"/><path class="cls-6" d="M84.24,399.86l.06,0c.14.06.32,0,.52-.12s.62-.26.81-.32l1.81-.65c1.07-.39,2.14-.78,3.2-1.2.46-.19.14-.6,0-1l-.54-1.54c-.72-2-1.6-4-2.29-6-.15-.43-.41-.55-.78-.4l-3.25,1.24-1.67.63c-.4.16-1.13.23-1.1.83a2.21,2.21,0,0,0,.16.54c.94,2.34,1.81,4.7,2.69,7.07C83.93,399.15,84,399.69,84.24,399.86Z"/><path class="cls-6" d="M90.05,415.53l.06,0c.15.06.32,0,.52-.12s.62-.26.81-.32l1.81-.65c1.07-.39,2.15-.78,3.21-1.2.46-.19.13-.6,0-1s-.37-1-.55-1.54c-.72-2-1.6-4-2.29-6-.15-.43-.41-.55-.78-.4l-3.25,1.24-1.67.63c-.4.16-1.13.23-1.09.83a1.82,1.82,0,0,0,.15.54c.94,2.34,1.81,4.7,2.69,7.07C89.74,414.82,89.85,415.36,90.05,415.53Z"/><path class="cls-6" d="M95.86,431.2l.06,0c.15.06.32,0,.52-.12s.62-.26.81-.32l1.81-.65c1.07-.39,2.15-.78,3.21-1.2.46-.19.13-.6,0-1s-.36-1-.55-1.54c-.72-2-1.6-4-2.29-6-.14-.43-.4-.55-.78-.4L95.4,421.2l-1.67.63c-.41.16-1.14.23-1.1.83a1.82,1.82,0,0,0,.15.54c.94,2.34,1.81,4.7,2.69,7.07C95.55,430.49,95.66,431,95.86,431.2Z"/><path class="cls-6" d="M-7.34,416a.1.1,0,0,0,0,0c.15.06.32,0,.52-.12s.62-.26.82-.32l1.8-.65c1.08-.39,2.15-.77,3.21-1.2.46-.19.14-.6,0-1l-.54-1.54c-.73-2-1.6-4-2.3-6-.14-.43-.4-.54-.77-.4L-7.81,406l-1.67.63c-.4.16-1.14.23-1.1.83a1.74,1.74,0,0,0,.15.54c.95,2.34,1.82,4.7,2.69,7.07C-7.65,415.29-7.55,415.83-7.34,416Z"/><path class="cls-6" d="M-1.53,431.67l.06,0c.14.06.31,0,.52-.12s.62-.26.81-.32l1.8-.65c1.08-.39,2.15-.77,3.21-1.2.46-.19.14-.6,0-1l-.54-1.54c-.73-2-1.6-4-2.29-6-.15-.43-.41-.54-.78-.4L-2,421.67l-1.67.63c-.4.16-1.14.23-1.1.83a1.76,1.76,0,0,0,.16.54c.94,2.34,1.81,4.7,2.68,7.07C-1.84,431-1.73,431.5-1.53,431.67Z"/><path class="cls-6" d="M4.28,447.34l.06,0c.14.06.32,0,.52-.12s.62-.26.81-.32l1.81-.65c1.07-.39,2.14-.77,3.2-1.2.46-.19.14-.6,0-1l-.54-1.54c-.72-2-1.6-4-2.29-6-.15-.43-.41-.54-.78-.4l-3.25,1.24L2.14,438c-.4.16-1.13.23-1.1.83a2.09,2.09,0,0,0,.16.54c.94,2.34,1.81,4.7,2.69,7.07C4,446.63,4.08,447.17,4.28,447.34Z"/><path class="cls-6" d="M10.09,463l.06,0c.14.06.32,0,.52-.12s.62-.26.81-.32l1.81-.65c1.07-.39,2.15-.77,3.2-1.2.46-.19.14-.6,0-1s-.37-1-.55-1.54c-.72-2-1.6-4-2.29-6-.15-.43-.41-.55-.78-.4L9.62,453,8,453.64c-.4.16-1.13.23-1.09.83A1.74,1.74,0,0,0,7,455c.94,2.34,1.81,4.7,2.69,7.07C9.78,462.3,9.89,462.84,10.09,463Z"/><path class="cls-6" d="M16.23,431.1a2.22,2.22,0,0,0,.53.31c1.35.55,3-.37,4.9-1.13,2.77-1.1,5.86-2.43,7.68-3.07q8.54-3,17.05-6.1c10.12-3.68,20.28-7.35,30.29-11.35,4.34-1.74,1.42-5.31.15-8.95q-2.35-6.72-4.73-13.43c-6.29-17.7-14-34.84-20-52.64-1.25-3.7-3.65-4.67-7.16-3.32-10.71,4.11-20,7.63-30.69,11.68l-15.78,6c-3.81,1.45-10.69,2.28-10.46,7.55a14.4,14.4,0,0,0,1.3,4.69c8.28,20.39,15.84,41,23.49,61.63C13.51,424.91,14.38,429.64,16.23,431.1Z"/></g><g class="cls-5"><path class="cls-15" d="M321.59,163.56a20.74,20.74,0,0,0,16.94.92c2.24-.85,4.46-1.77,6.69-2.67a1.07,1.07,0,0,1,.52-.12,1,1,0,0,1,.49.2c4.55,2.74,9.54,5.94,14.76,7.18,6.42,1.66,14,1.34,20-1.56,3.76-1.82,6.25-5.15,5.28-9.49a14.86,14.86,0,0,0-4.56-7.25c2.17,1.24,4.79,1,7.19,1.21a22.64,22.64,0,0,0,8-.46,13.33,13.33,0,0,0,8.87-7.4c2.08-5.16-1.07-12.71-7.34-12.5,9.73-.33,2.24-24.47-10.26-16.35,3.6-2.34,4.4-6.91,3.64-10.88-.91-4.8-3.72-7.49-8.54-8.43a7.53,7.53,0,0,0-3.83.05,3.57,3.57,0,0,0-2.31,4.24,13.55,13.55,0,0,0-17.29-12.83A8.67,8.67,0,0,0,353.67,93a21.66,21.66,0,0,0-5.38-11,21,21,0,0,0-20.69-5.71,16.82,16.82,0,0,0-9.86,7.1c-1.27,2.06-1.11,4.57-1.44,6.87.43-3.72-3.8-6.46-6.68-7.83a16.26,16.26,0,0,0-7.49-1.84c-5.41.19-8.52,4.69-10.52,9.22-.36.81-3.13,6.54-1.4,7a17.26,17.26,0,0,0-14.52,2.41c-10,7.15-9.29,31,6.74,28-1.68,1.58-3.5,3.44-4.23,5.9-2.3,7.83,5,14.12,12,15.4,5,.91,10.48,0,15.43-.78.78-.12,4.77,5.77,5.36,6.46a57.68,57.68,0,0,0,6.48,6.69A21,21,0,0,0,321.59,163.56Z"/><text class="cls-41" transform="matrix(0.97, 0.23, -0.23, 0.97, 299.06, 127.75)">action!</text></g><g class="cls-5"><path class="cls-15" d="M161.4,560.4A20.73,20.73,0,0,0,178,563.93c2.35-.49,4.69-1.06,7-1.6a1,1,0,0,1,.54,0,1.09,1.09,0,0,1,.45.27c4.07,3.41,8.51,7.35,13.47,9.38,6.09,2.64,13.58,3.49,20,1.56,4-1.21,7-4.12,6.69-8.55a14.88,14.88,0,0,0-3.38-7.87c1.95,1.56,4.57,1.74,6.92,2.31a22.58,22.58,0,0,0,8,.78,13.34,13.34,0,0,0,9.9-5.94c2.86-4.77.92-12.72-5.31-13.49,9.67,1.19,6-23.82-7.61-17.73,3.93-1.76,5.42-6.15,5.29-10.18-.15-4.89-2.51-8-7.13-9.66a7.53,7.53,0,0,0-3.79-.55,3.59,3.59,0,0,0-2.94,3.83A13.55,13.55,0,0,0,211,491.1a8.71,8.71,0,0,0-7,4.56,21.6,21.6,0,0,0-3.6-11.73,21,21,0,0,0-19.56-8.83A16.79,16.79,0,0,0,170,480.58c-1.57,1.83-1.8,4.34-2.49,6.56,1-3.61-2.75-7-5.38-8.77a16.24,16.24,0,0,0-7.11-3c-5.38-.65-9.15,3.31-11.83,7.47-.48.74-4.1,6-2.46,6.7a17.33,17.33,0,0,0-14.73.13c-11,5.51-14,29.14,2.33,28.66-1.9,1.3-4,2.86-5.08,5.17-3.5,7.39,2.77,14.73,9.51,17.09,4.78,1.67,10.35,1.57,15.36,1.61.78,0,3.81,6.44,4.29,7.22a58.55,58.55,0,0,0,5.36,7.61A21.46,21.46,0,0,0,161.4,560.4Z"/><text class="cls-41" transform="translate(144.69 521.55) rotate(22.27)">action!</text></g><g class="cls-5"><path class="cls-15" d="M12.1,801.6a7.65,7.65,0,0,0,1.8-3.75c3.15-13.09,6.37-26.19,8.9-39.42.13-.66.87-2.65.59-3.25s-1.49-.42-2.05-.43a14.74,14.74,0,0,0-5.38.91,2.09,2.09,0,0,0-.74.42,7,7,0,0,0-1.59,3.53c-.44,1.62-1,3.22-1.51,4.83q-1.48,4.84-2.87,9.7-2.77,9.74-5.16,19.56c-.36,1.47-.66,3-.93,4.46-.66,3.22.93,4.82,4.05,4.89C9.49,803.1,11,802.68,12.1,801.6Z"/><path class="cls-15" d="M69.64,790a7.82,7.82,0,0,1-3.12-2.76c-8-10.83-16-21.64-23.53-32.84-.38-.56-1.83-2.12-1.81-2.77s1.21-1,1.72-1.19a14.54,14.54,0,0,1,5.31-1.26,2.23,2.23,0,0,1,.85.09,7.21,7.21,0,0,1,2.84,2.64c1,1.33,2.18,2.57,3.26,3.86q3.26,3.88,6.42,7.83,6.35,7.88,12.37,16c.9,1.21,1.76,2.47,2.59,3.74,1.86,2.71,1,4.8-1.83,6.08C72.63,790.32,71.05,790.52,69.64,790Z"/><path class="cls-6" d="M25.43,689.32C15,686.54,9.16,676.6,8.84,666c-.48-16.43,13.55-30.29,30.24-27.89,10,1.44,19.09,9,21.67,18.88,5,19-15.11,35.71-33.13,32.81A21.77,21.77,0,0,1,25.43,689.32Z"/><path class="cls-6" d="M31.64,672.75c-3.7-1-5.75-4.5-5.86-8.25a9.51,9.51,0,0,1,10.69-9.86,9.39,9.39,0,0,1,7.66,6.68c1.75,6.73-5.34,12.62-11.71,11.59C32.15,672.87,31.89,672.81,31.64,672.75Z"/><path class="cls-15" d="M76.89,694.7a4.61,4.61,0,0,1,.66-1.4c2.45-4,4.36-8.38,7.12-12.22.69-1,3.49-5.23,4.87-4.88,2.36.61,2.78,8.91,3.13,10.72l2.92,15.26,4.56,23.8c.42,2.2,2.53,6.95-1.05,6.7-2.13-.15-4.34-3-6-4.14L82.5,721.29A4.17,4.17,0,0,1,81.14,720a4.32,4.32,0,0,1-.42-1.42Q78.89,707.37,77,696.16a4.2,4.2,0,0,1-.08-1.32A.59.59,0,0,1,76.89,694.7Z"/><path class="cls-15" d="M64.15,694.79a3.13,3.13,0,0,1,2.07-1.07l10-2.06a2.12,2.12,0,0,1,1.32,0c1.36.66,1.8,8,2.11,9.55q1.09,5.37,2.17,10.73c.69,3.37,1.73,6.85,2.08,10.27.39,3.8-2.08,3-5.57,3.73-1.39.28-6.86,2.31-8.1,1.57s-1.52-6.26-1.82-7.77l-1.65-8.49c-.83-4.25-1.65-8.49-2.49-12.74C63.93,696.9,63.56,695.65,64.15,694.79Z"/><path class="cls-15" d="M2.09,763.59a2.34,2.34,0,0,1-1.62-2q-1-5-2.09-10a1.35,1.35,0,0,1,.26-1.36c1.45-1.52,15.07-3.24,18-3.82l20.15-4.08c6.33-1.28,12.94-3,19.3-3.91,7.07-1,5.22,1.64,5.92,5.12.29,1.4,3.1,6.71,1.52,8.12s-11.81,2.65-14.64,3.21L32.92,758.1,9,762.85C5.94,763.46,3.57,764.05,2.09,763.59Z"/><path class="cls-6" d="M-23.57,699.24c-10.48-2.78-16.28-12.71-16.59-23.33-.48-16.44,13.55-30.29,30.24-27.9,10,1.44,19.09,9,21.66,18.89,5,19.05-15.1,35.71-33.13,32.81A21,21,0,0,1-23.57,699.24Z"/><path class="cls-15" d="M-34.26,700.9c-.75,1.44.28,3.66.61,5.32l3.09,15.23q3,14.92,6,29.85l1.23,6.09c.5,2.47.38,3.87,3.13,3.9,4.73.06,10.07-1.93,14.72-2.89l17-3.53q30.43-6.3,60.88-12.42c1.57-.32,3.81-.37,5.26-1.07,1-.46,1.09.08,1.63-1s-1-4.92-1.18-6.07L77,728.2q-4.26-21.62-8.91-43.14c-.71-3.26-.56-4.52-4-4.48a56.24,56.24,0,0,0-10.22,1.49c-6.64,1.34-13.16,3.2-19.8,4.54Q3.6,692.7-26.77,698.9c-1.55.31-5.93.39-7.06,1.43A2,2,0,0,0-34.26,700.9Z"/><path class="cls-15" d="M22.81,700.43c-.24.47.09,1.18.2,1.71L24,707c.65,3.2,1.3,6.39,1.94,9.59.13.65.27,1.3.4,2s.12,1.25,1,1.26a23.56,23.56,0,0,0,4.73-.93l5.46-1.13q9.78-2,19.55-4a7.24,7.24,0,0,0,1.69-.34c.31-.15.35,0,.52-.32s-.3-1.58-.37-2l-.39-2q-1.37-6.94-2.86-13.86c-.23-1-.18-1.45-1.3-1.43a17.31,17.31,0,0,0-3.28.48c-2.13.43-4.23,1-6.36,1.45l-19.51,3.95c-.5.1-1.91.13-2.27.46A.79.79,0,0,0,22.81,700.43Z"/><g class="cls-42"><path class="cls-8" d="M-40.54,727.58c13.73-2.9,27.46-5.66,41.34-7.78a17.12,17.12,0,0,1,5.88-.2,16.57,16.57,0,0,1,4.86,2.08C28.63,731.33,44.35,743.19,60,755"/></g></g><g class="cls-5"><path class="cls-15" d="M1389.54,771.78a5.7,5.7,0,0,1-.84-3c-.66-10-1.37-20.06-1.56-30.1,0-.5-.3-2.06,0-2.46s1.14-.13,1.56-.06a10.89,10.89,0,0,1,3.83,1.35,1.5,1.5,0,0,1,.5.4,5.24,5.24,0,0,1,.72,2.79c.12,1.25.34,2.5.5,3.75q.48,3.74.88,7.49c.54,5,1,10,1.33,15,.07,1.13.1,2.27.11,3.4.08,2.45-1.29,3.43-3.59,3.08A4.71,4.71,0,0,1,1389.54,771.78Z"/><path class="cls-15" d="M1348.72,756a5.78,5.78,0,0,0,2.64-1.64c7.25-6.95,14.54-13.88,21.45-21.17.35-.36,1.62-1.32,1.68-1.8s-.76-.86-1.11-1.09a10.71,10.71,0,0,0-3.74-1.6,1.73,1.73,0,0,0-.64,0,5.3,5.3,0,0,0-2.42,1.58c-.93.84-1.93,1.62-2.89,2.43-1.92,1.63-3.82,3.27-5.71,4.94q-5.65,5-11.11,10.2c-.82.78-1.61,1.6-2.38,2.43-1.71,1.76-1.36,3.4.57,4.7A4.71,4.71,0,0,0,1348.72,756Z"/><path class="cls-6" d="M1393.94,687.56c8-.72,13.57-7.29,15.14-15.06,2.43-12-6.13-24-18.7-24.33-7.54-.2-15.17,4.21-18.32,11.15-6.06,13.37,6.59,28.16,20.21,28.3A15.26,15.26,0,0,0,1393.94,687.56Z"/><path class="cls-6" d="M1391.47,674.59c2.84-.25,4.79-2.57,5.35-5.32a7,7,0,0,0-13.09-4.66c-2.14,4.73,2.33,9.95,7.15,10A5.83,5.83,0,0,0,1391.47,674.59Z"/><path class="cls-15" d="M1355.43,685a3.66,3.66,0,0,0-.3-1.11c-1.3-3.27-2.15-6.72-3.7-9.88-.38-.8-1.91-4.29-3-4.2-1.81.15-3.17,6.19-3.66,7.48q-2,5.41-4.07,10.84l-6.36,16.93c-.59,1.56-2.74,4.78-.07,5,1.58.16,3.56-1.65,4.93-2.28l8.7-4a3.23,3.23,0,0,0,1.17-.77,2.94,2.94,0,0,0,.48-1q2.78-8,5.61-16a3.21,3.21,0,0,0,.23-1Z"/><path class="cls-15" d="M1364.79,686.69a2.37,2.37,0,0,0-1.4-1.05l-7.06-2.77a1.51,1.51,0,0,0-1-.15c-1.09.31-2.34,5.65-2.76,6.75-1,2.53-2,5.07-3,7.61-.92,2.39-2.13,4.82-2.82,7.29-.77,2.74,1.15,2.48,3.62,3.44,1,.39,4.76,2.57,5.76,2.19s1.91-4.42,2.32-5.49q1.14-3,2.29-6,1.71-4.53,3.43-9.05C1364.68,688.27,1365.11,687.4,1364.79,686.69Z"/><path class="cls-15" d="M1401.71,745.11a1.76,1.76,0,0,0,1.44-1.24c.93-2.35,1.86-4.71,2.8-7.06a1,1,0,0,0,0-1c-.88-1.3-10.67-4.28-12.73-5.08l-14.3-5.54c-4.49-1.74-9.14-3.81-13.69-5.31-5.07-1.67-4,.54-5,3-.39,1-3.12,4.55-2.15,5.78s8.35,3.44,10.36,4.21l11.32,4.34,17,6.51C1398.9,744.53,1400.56,745.26,1401.71,745.11Z"/><path class="cls-6" d="M1428.71,701.05c8-.72,13.57-7.29,15.14-15.06,2.43-12-6.13-24-18.7-24.33-7.54-.2-15.17,4.21-18.32,11.15-6.06,13.37,6.59,28.16,20.21,28.3A15.26,15.26,0,0,0,1428.71,701.05Z"/><path class="cls-15" d="M1436.36,703.62c.36,1.15-.67,2.65-1.13,3.84l-4.19,10.8-8.22,21.18-1.68,4.32c-.67,1.75-.76,2.8-2.79,2.47-3.49-.55-7.16-2.69-10.46-4l-12.05-4.74q-21.57-8.47-43.18-16.83a18,18,0,0,1-3.73-1.44c-.64-.46-.82-.08-1.07-.94s1.32-3.5,1.63-4.32l1.65-4.34q5.86-15.35,12-30.59c.93-2.31,1-3.25,3.53-2.78a42.41,42.41,0,0,1,7.33,2.39c4.71,1.82,9.27,4,14,5.84q21.57,8.31,43.11,16.71c1.1.43,4.31,1,5,1.95A1.42,1.42,0,0,1,1436.36,703.62Z"/><path class="cls-15" d="M1394.46,696.06c.12.37-.21.85-.36,1.23l-1.35,3.47-2.64,6.8-.54,1.39c-.21.56-.24.9-.89.8a17.63,17.63,0,0,1-3.36-1.29l-3.87-1.52q-6.93-2.72-13.87-5.4a5.65,5.65,0,0,1-1.2-.47c-.2-.14-.26,0-.34-.3s.42-1.12.52-1.39c.18-.46.36-.92.53-1.39q1.89-4.92,3.86-9.82c.3-.74.31-1,1.13-.89a13.25,13.25,0,0,1,2.36.76c1.51.59,3,1.29,4.49,1.88l13.84,5.36c.36.14,1.39.34,1.61.63A.55.55,0,0,1,1394.46,696.06Z"/><g class="cls-43"><path class="cls-8" d="M1437.6,724c-9.73-3.87-19.47-7.64-29.41-10.95a12.74,12.74,0,0,0-4.29-.89,12.52,12.52,0,0,0-3.84.91c-13.78,4.94-26.83,11.67-39.84,18.38"/></g><path class="cls-6" d="M1426.24,688.08c2.84-.25,4.79-2.57,5.35-5.32a7,7,0,0,0-13.09-4.66c-2.14,4.73,2.33,9.95,7.15,10A5.83,5.83,0,0,0,1426.24,688.08Z"/></g><g class="cls-5"><path class="cls-44" d="M1173.36,595.61c4.38-2.08,10-3.89,14.85-3a56.84,56.84,0,0,1,7.29,2.15,34.93,34.93,0,0,0,24.28-1.51"/><path class="cls-8" d="M1163.83,560c6.19-2.1,12.4,1,16.09,6.19,5.71,8.08,3.28,19.7-5.89,24.06a16,16,0,0,1-17.16-2.27c-8.83-7.9-4.3-22.94,5.71-27.49C1163,560.3,1163.42,560.14,1163.83,560Z"/><path class="cls-8" d="M1163.3,557.71c7.07-2.39,14.17,1.1,18.39,7.07,6.52,9.24,3.74,22.52-6.74,27.49a18.3,18.3,0,0,1-19.6-2.59c-10.09-9-4.91-26.21,6.53-31.41C1162.35,558.06,1162.83,557.87,1163.3,557.71Z"/><path class="cls-8" d="M1162.7,555.1c8.07-2.73,16.18,1.26,21,8.08,7.45,10.55,4.28,25.72-7.69,31.4-7.18,3.4-16.41,2.39-22.39-3-11.53-10.32-5.62-30,7.45-35.88A15.7,15.7,0,0,1,1162.7,555.1Z"/><path class="cls-6" d="M1191.32,555.81c-7.09-10-19-15.9-30.9-11.89-.8.27-1.6.59-2.4,1-19.23,8.73-27.93,37.61-11,52.79,8.79,7.88,22.38,9.37,32.94,4.36C1197.62,593.66,1202.29,571.34,1191.32,555.81Zm-33.69-1.36c2.26-2.57,7.72-3.34,9.88-.24a5.54,5.54,0,0,1,.16,5.41,10.63,10.63,0,0,1-3.74,4.36,5.25,5.25,0,0,1-3,.85,5.46,5.46,0,0,1-4.63-3.91A6.85,6.85,0,0,1,1157.63,554.45Zm-11.16,23.13a5.51,5.51,0,0,1-.16-5.41,10.53,10.53,0,0,1,3.73-4.36,5.26,5.26,0,0,1,3-.85,5.44,5.44,0,0,1,4.62,3.91,6.85,6.85,0,0,1-1.36,6.47C1154.09,579.91,1148.63,580.68,1146.47,577.58Zm32.21-22a5.31,5.31,0,0,1,3-.85,5.46,5.46,0,0,1,4.63,3.91,6.88,6.88,0,0,1-1.37,6.47c-2.26,2.57-7.72,3.34-9.88.24A5.54,5.54,0,0,1,1175,560,10.6,10.6,0,0,1,1178.68,555.62Zm-29.9,33.67c-.32-2.76.92-5.36,4-5.47a7.31,7.31,0,0,1,4.29,1.42,7.78,7.78,0,0,1,2.26,2.24,4.57,4.57,0,0,1,.77,2.5C1160.1,596.84,1149.48,595.38,1148.78,589.29Zm24.63,8.09a5.51,5.51,0,0,1-5.38.51c-3.35-1.76-3.26-7.27-1-9.83a6.84,6.84,0,0,1,6.25-2.16,5.47,5.47,0,0,1,4.46,4.11,5.25,5.25,0,0,1-.48,3.13A10.58,10.58,0,0,1,1173.41,597.38Zm9.94-11.27a5.45,5.45,0,0,1-4.46-4.11,5.28,5.28,0,0,1,.47-3.12,10.57,10.57,0,0,1,3.87-4.25,5.53,5.53,0,0,1,5.38-.51c3.35,1.76,3.25,7.28,1,9.84A6.84,6.84,0,0,1,1183.35,586.11Z"/></g><g class="cls-5"><path class="cls-44" d="M50,60.2c3.63-8.61,9.37-18.42,17.46-23.37,4.16-2.55,8.77-4.29,13.24-6.27,14.55-6.43,26.26-19,32.87-33.33"/><path class="cls-8" d="M-9.41,21.32c6.19-10.93,19-14.52,31-11.76,18.57,4.27,30,24.06,22.43,42.08C39.51,62.45,28.36,70.41,16.52,70.41-6.3,70.4-19.1,43-10.57,23.64A23.9,23.9,0,0,1-9.41,21.32Z"/><path class="cls-8" d="M-13.1,18.72C-6,6.23,8.64,2.12,22.35,5.28,43.56,10.15,56.62,32.77,48,53.35,42.78,65.7,30,74.8,16.52,74.8c-26.07,0-40.69-31.3-30.95-53.43C-14,20.45-13.58,19.56-13.1,18.72Z"/><path class="cls-8" d="M-17.32,15.75C-9.25,1.48,7.52-3.21,23.18.39,47.42,6,62.33,31.8,52.45,55.31,46.52,69.41,32,79.81,16.52,79.81c-29.78,0-46.49-35.76-35.36-61C-18.37,17.72-17.87,16.71-17.32,15.75Z"/><path class="cls-6" d="M24.66-19.95c-23-5.3-47.71,1.6-59.59,22.59a47.36,47.36,0,0,0-2.23,4.45c-16.38,37.2,8.2,89.8,52,89.81,22.73,0,44.14-15.29,52.86-36C82.27,26.26,60.32-11.76,24.66-19.95ZM-25.43,21.33c-.05-6.58,6.78-14.7,13.87-13,3.54.84,6.12,4.07,7.17,7.55a20.37,20.37,0,0,1,.23,11.05,10.18,10.18,0,0,1-3.26,5.14c-3.23,2.59-8.11,2.43-11.67.32A13.18,13.18,0,0,1-25.43,21.33Zm13.67,47.51c-3.54-.84-6.12-4.07-7.17-7.55a20.46,20.46,0,0,1-.24-11A10.2,10.2,0,0,1-15.9,45.1c3.23-2.59,8.11-2.43,11.67-.32a13.21,13.21,0,0,1,6.34,11C2.16,62.4-4.67,70.52-11.76,68.84ZM6.29-4A10.13,10.13,0,0,1,9.56-9.15c3.22-2.59,8.1-2.43,11.66-.32a13.17,13.17,0,0,1,6.34,11c.06,6.59-6.78,14.71-13.87,13C10.15,13.75,7.57,10.52,6.53,7A20.37,20.37,0,0,1,6.29-4ZM6.6,82.68c-4-3.56-5.56-8.88-1.26-13a14.1,14.1,0,0,1,8-3.48,15.24,15.24,0,0,1,6.13.32,8.91,8.91,0,0,1,4.31,2.59C32.52,79,15.41,90.5,6.6,82.68Zm45.71-20c-1,3.5-3.54,6.76-7.06,7.64-7.07,1.78-14-6.26-14-12.84a13.19,13.19,0,0,1,6.2-11.11c3.53-2.16,8.41-2.39,11.67.17a10.08,10.08,0,0,1,3.33,5.09A20.3,20.3,0,0,1,52.31,62.67Zm-.2-28.92c-3.54,2.16-8.41,2.38-11.67-.17a10.16,10.16,0,0,1-3.34-5.09,20.4,20.4,0,0,1,.1-11c1-3.5,3.54-6.76,7.07-7.65,7.06-1.77,14,6.27,14,12.85A13.22,13.22,0,0,1,52.11,33.75Z"/></g><g class="cls-5"><path class="cls-44" d="M1342.29,96.18c6.25-3.22,14.29-6.11,21.35-5.07a82.85,82.85,0,0,1,10.67,2.78c11.5,3.31,24.31,1.73,35.06-3.38"/><path class="cls-8" d="M1326.78,45.09c8.85-3.33,18,.8,23.59,8.18,8.66,11.43,5.7,28.37-7.37,35.12-7.83,4-18.11,3.26-24.94-2.45-13.17-11-7.34-33,6.93-40.07A16.45,16.45,0,0,1,1326.78,45.09Z"/><path class="cls-8" d="M1325.9,41.81c10.11-3.8,20.56.91,26.95,9.34,9.89,13.06,6.52,32.41-8.41,40.12-9,4.62-20.7,3.73-28.5-2.8-15-12.58-8.38-37.71,7.92-45.78C1324.54,42.36,1325.22,42.06,1325.9,41.81Z"/><path class="cls-8" d="M1324.9,38.05c11.55-4.34,23.49,1,30.79,10.68,11.3,14.91,7.45,37-9.61,45.83-10.23,5.28-23.64,4.26-32.56-3.2-17.19-14.37-9.58-43.07,9-52.29A25,25,0,0,1,1324.9,38.05Z"/><path class="cls-6" d="M1366.36,37.7c-10.74-14.18-28.31-22.1-45.3-15.71-1.15.43-2.29.93-3.43,1.49-27.41,13.57-38.6,55.8-13.31,77,13.11,11,32.85,12.47,47.9,4.7C1377.31,92.18,1383,59.65,1366.36,37.7Zm-48.84-.34c3.15-3.82,11-5.21,14.3-.82,1.63,2.19,1.57,5.31.49,7.82a15.39,15.39,0,0,1-5.2,6.49,7.58,7.58,0,0,1-4.36,1.39c-3.12-.06-5.86-2.51-6.89-5.45A9.94,9.94,0,0,1,1317.52,37.36Zm-15,34c-1.64-2.19-1.57-5.3-.49-7.81a15.32,15.32,0,0,1,5.19-6.5,7.67,7.67,0,0,1,4.37-1.38c3.11.06,5.85,2.5,6.89,5.44a9.94,9.94,0,0,1-1.67,9.43C1313.63,74.38,1305.77,75.77,1302.49,71.38ZM1348.06,38a7.71,7.71,0,0,1,4.37-1.39c3.11.06,5.85,2.51,6.89,5.45a9.94,9.94,0,0,1-1.67,9.43c-3.14,3.82-11,5.21-14.29.82-1.63-2.19-1.57-5.3-.49-7.82A15.37,15.37,0,0,1,1348.06,38Zm-41.65,50.19c-.6-4,1.07-7.8,5.55-8.12a10.61,10.61,0,0,1,6.28,1.84,11.56,11.56,0,0,1,3.38,3.15,6.68,6.68,0,0,1,1.24,3.57C1323.15,98.6,1307.72,97,1306.41,88.23Zm36,10.51c-2.26,1.54-5.3,2.19-7.77,1-4.93-2.39-5.06-10.38-1.9-14.19a9.92,9.92,0,0,1,8.94-3.43c3.08.46,6,2.69,6.65,5.73a7.59,7.59,0,0,1-.53,4.55A15.35,15.35,0,0,1,1342.45,98.74ZM1356.29,82c-3.08-.46-6-2.68-6.66-5.73a7.68,7.68,0,0,1,.54-4.55,15.28,15.28,0,0,1,5.39-6.33c2.26-1.54,5.3-2.19,7.76-1,4.94,2.38,5.07,10.37,1.91,14.19A9.94,9.94,0,0,1,1356.29,82Z"/></g><g class="cls-5"><path class="cls-15" d="M1238.3,185.39a10.53,10.53,0,0,0,1.39-5.68c.18-18,.46-36.1-.33-53.94,0-.89.37-3.79-.25-4.36s-2.38.34-3.22.65a29.8,29.8,0,0,0-7.74,4.25,4.19,4.19,0,0,0-1,.94c-1.14,1.77-1.1,3.53-1.16,5.29-.09,2.27-.41,4.58-.59,6.86q-.54,6.84-.93,13.67-.78,13.65-1,27.2c0,2,0,4,.15,6,.13,4.37,3.06,5.43,7.77,3.71C1234.9,188.77,1237.06,187.35,1238.3,185.39Z"/><path class="cls-15" d="M1203.75,74.6c-5.68-1.13-26.37,70.5-28.26,79-.55,2.45-1.75,5.1,2,5.59,3,.4,7.27-1.1,10.47-1.14,14.07-.14,28.15,0,42.22-.3,10.21-.22,36.28,4.75,40-7.91,2.77-9.51,7.54-14.05-2.09-21a338.63,338.63,0,0,1-34.16-28.06C1225.56,93,1215.52,77.15,1203.75,74.6Z"/><g class="cls-45"><path class="cls-46" d="M1220.94,69.61c-8.53,16.9-13.19,35.43-18.77,53.53-2.93,9.52-6.14,19-9.34,28.39q-5.38,15.85-10.78,31.72"/></g><path class="cls-15" d="M1280.29,130.52a2.56,2.56,0,0,0-1.75-1.34l-8.94-3a1.64,1.64,0,0,0-1.23-.09c-1.38.62-3.06,8.61-3.62,10.27l-3.87,11.55c-1.22,3.63-2.79,7.35-3.71,11.06-1,4.12,1.43,3.47,4.55,4.52,1.26.42,6,3.07,7.3,2.37s2.49-6.73,3-8.35q1.51-4.58,3-9.15,2.25-6.87,4.51-13.73C1280.14,132.84,1280.69,131.5,1280.29,130.52Z"/></g><g class="cls-5"><path class="cls-15" d="M126.39,162a6.13,6.13,0,0,1,1.37-3.19c6.34-8.6,12.65-17.27,19.39-25.44.34-.41,1.17-1.93,1.67-2s1,1,1.29,1.46a17.71,17.71,0,0,1,2.16,4.77,2.24,2.24,0,0,1,.13.8,5.64,5.64,0,0,1-1.34,2.92c-.76,1.1-1.44,2.31-2.17,3.46q-2.17,3.43-4.43,6.81-4.5,6.73-9.25,13.23c-.71,1-1.47,1.9-2.23,2.81-1.62,2-3.39,1.48-5-1A7.55,7.55,0,0,1,126.39,162Z"/><path class="cls-15" d="M182.28,121.78c3.09,1.5-12.65,42.82-14.78,47.52-.62,1.36-1,3-2.95,1.94-1.56-.89-3.05-3.12-4.55-4.28-6.62-5.08-13.35-10-19.9-15.2-4.76-3.75-18.89-10.69-16.12-18,2.08-5.49,1.44-9.35,8.47-9.19a199.21,199.21,0,0,0,26.19-1.12C165.38,122.72,175.79,118.79,182.28,121.78Z"/><g class="cls-47"><path class="cls-46" d="M175.91,113.29c-2,11-6.39,21.5-10.2,32.06-2,5.56-3.85,11.18-5.7,16.79q-3.09,9.44-6.2,18.87"/></g><path class="cls-15" d="M126.06,121a1.47,1.47,0,0,1,1.3,0l5.33,1.74a1,1,0,0,1,.61.4c.44.79-1.62,5.17-2,6.16l-2.28,6.85c-.72,2.16-1.3,4.48-2.19,6.57-1,2.31-1.91,1.13-3.77.51-.74-.24-3.94-.68-4.3-1.47s1.22-4.08,1.54-5c.62-1.8,1.23-3.61,1.84-5.41l2.76-8.11C125.3,122.14,125.52,121.31,126.06,121Z"/></g></g></g></svg>